<svg width="98" height="42" viewBox="0 0 98 42" fill="none" xmlns="http://www.w3.org/2000/svg">
<g clip-path="url(#clip0_55_2)">
<path d="M96.4376 9.80354L94.4643 7.83024C94.0124 7.37838 93.2774 7.37838 92.8256 7.83024L74.6311 26.0218V8.26494C74.6311 7.62433 74.1135 7.10669 73.4728 7.10669H70.5901C69.9495 7.10669 69.4319 7.62433 69.4319 8.26494V29.7282V33.6777C69.4319 34.3183 69.9495 34.836 70.5901 34.836H96.0972C96.7379 34.836 97.2555 34.3183 97.2555 33.6777V30.8865C97.2555 30.2459 96.7379 29.7282 96.0972 29.7282H78.1516L96.4376 11.4422C96.8894 10.9904 96.8894 10.2554 96.4376 9.80354Z" fill="#DDDDDD" fill-opacity="0.2"/>
<path d="M47.8345 2.6006L43.3318 0.000976562L20.5844 39.4006L25.0871 42.0002L47.8345 2.6006Z" fill="#DDDDDD" fill-opacity="0.2"/>
<path d="M27.8265 22.5843C27.8265 21.306 26.7884 20.2678 25.51 20.2678H20.7798V20.2621H19.2955L20.0591 19.6558C20.5195 19.2898 20.7884 18.7321 20.7884 18.1458V9.39462C20.7884 8.11626 19.7502 7.07812 18.4719 7.07812H1.15825C0.517636 7.07812 0 7.59576 0 8.23637V11.0276C0 11.6682 0.517636 12.1858 1.15825 12.1858H14.4309C15.0715 12.1858 15.5891 12.7035 15.5891 13.3441V16.3927C15.5891 17.0333 15.0715 17.551 14.4309 17.551H10.9418C9.66349 17.551 8.62536 18.5891 8.62536 19.8674V23.0591C8.62536 24.3374 9.66349 25.3756 10.9418 25.3756H21.469C22.1096 25.3756 22.6273 25.8932 22.6273 26.5338V28.57C22.6273 29.2106 22.1096 29.7283 21.469 29.7283H6.35748C5.71687 29.7283 5.19924 29.2106 5.19924 28.57V16.7988C5.19924 16.1582 4.6816 15.6406 4.04099 15.6406H1.15825C0.517636 15.6406 0 16.1582 0 16.7988V32.5195C0 33.7979 1.03813 34.836 2.31649 34.836H21.4376L27.8265 23.7683V22.5843Z" fill="#DDDDDD" fill-opacity="0.2"/>
<path d="M65.2736 26.1906L61.0696 26.1992C60.8608 26.1992 60.6692 26.3164 60.5662 26.4966C58.8646 29.448 55.7359 31.4242 52.1611 31.4242C46.7674 31.4242 42.3947 26.9256 42.3947 21.3774C42.3947 15.8293 46.7674 11.3307 52.1611 11.3307C55.4414 11.3307 58.3441 12.9952 60.1172 15.549C60.2288 15.7092 60.4061 15.8064 60.5977 15.8036L64.9533 15.7893C65.3708 15.7893 65.6539 15.3574 65.4824 14.9771C63.1401 9.82644 58.0553 6.25732 52.1611 6.25732C50.3222 6.25732 48.5605 6.60909 46.939 7.24398L37.6015 23.4194C38.571 30.8036 44.7197 36.4976 52.164 36.4976C58.3584 36.4976 63.6578 32.5538 65.8227 26.9771C65.9685 26.5996 65.6854 26.1906 65.2793 26.1935L65.2736 26.1906Z" fill="#DDDDDD" fill-opacity="0.2"/>
</g>
<defs>
<clipPath id="clip0_55_2">
<rect width="97.2555" height="42" fill="white"/>
</clipPath>
</defs>
</svg>
