<svg width="743" height="115" viewBox="0 0 743 115" fill="none" xmlns="http://www.w3.org/2000/svg">
<path d="M34.0951 32.1351C31.6339 32.1351 29.1343 32.3658 26.5962 32.8273C24.1351 33.2888 21.6739 33.8271 19.2128 34.4424C16.7516 34.9808 14.2904 35.4807 11.8293 35.9422C9.3681 36.4037 6.86848 36.6344 4.33041 36.6344C3.5613 36.6344 2.75373 36.5575 1.9077 36.4037C1.13859 36.1729 0.754033 35.4807 0.754033 34.3271C0.754033 33.558 1.06168 32.7888 1.67697 32.0197C2.36917 31.1737 3.09983 30.7122 3.86894 30.6353L34.7873 26.136C34.8642 25.8284 34.9796 25.3669 35.1334 24.7516C35.2872 24.0594 35.4795 23.4057 35.7102 22.7904C36.0179 22.0982 36.4024 21.5213 36.8639 21.0599C37.3254 20.5215 37.8638 20.2523 38.479 20.2523C39.402 20.2523 40.1326 20.483 40.671 20.9445C41.2094 21.406 41.6709 21.9443 42.0554 22.5596C42.44 23.098 42.7861 23.5979 43.0937 24.0594C43.4014 24.5209 43.7859 24.7516 44.2474 24.7516H45.1703C45.9394 24.6747 47.17 24.5593 48.8621 24.4055C50.5541 24.1748 52.4769 23.944 54.6304 23.7133C56.8609 23.4826 59.2067 23.2518 61.6678 23.0211C64.129 22.7135 66.4748 22.4827 68.7052 22.3289C70.9356 22.0982 72.8969 21.9059 74.5889 21.7521C76.281 21.5213 77.5116 21.3291 78.2807 21.1752C78.5114 21.1752 79.0498 21.1752 79.8958 21.1752C80.8187 21.0983 81.4725 21.0599 81.857 21.0599C81.857 22.5212 81.0495 23.7518 79.4343 24.7516C77.8961 25.6745 75.8964 26.4821 73.4352 27.1743C71.051 27.7896 68.3591 28.2895 65.3596 28.6741C62.4369 28.9817 59.5528 29.2509 56.707 29.4817C53.9382 29.7124 51.3617 29.9047 48.9774 30.0585C46.6701 30.2123 44.9011 30.4046 43.6706 30.6353C43.3629 36.096 43.4783 41.7875 44.0167 47.7096C44.632 53.6318 45.3626 59.5924 46.2086 65.5915C47.1316 71.5906 47.9776 77.5512 48.7467 83.4734C49.5158 89.3956 49.9004 95.0486 49.9004 100.432C50.208 101.509 50.3234 102.355 50.2465 102.97C50.2465 103.586 50.0542 104.009 49.6696 104.239C49.2851 104.47 48.7083 104.586 47.9391 104.586C47.17 104.586 46.2471 104.547 45.1703 104.47C44.4012 101.701 43.709 98.4711 43.0937 94.7794C42.5553 91.0107 42.0554 87.0113 41.594 82.7812C41.1325 78.4742 40.671 74.0518 40.2096 69.514C39.825 64.9762 39.4404 60.4769 39.0559 56.0161C38.6713 51.5552 38.2483 47.2866 37.7868 43.2103C37.3254 39.134 36.787 35.4423 36.1717 32.1351H34.0951ZM111.797 54.0548C108.951 52.9781 106.221 53.4011 103.606 55.3239C100.991 57.2467 98.4914 59.977 96.1072 63.5149C93.7229 66.9759 91.454 70.9369 89.3005 75.3977C87.147 79.8586 85.1473 84.0887 83.3014 88.0881C81.4556 92.0875 79.7635 95.51 78.2253 98.3558C76.764 101.201 75.418 102.778 74.1874 103.086C73.2645 103.086 72.5339 102.932 71.9955 102.624C71.534 102.24 71.3033 101.355 71.3033 99.9709V18.8679C71.3033 18.1757 71.5725 17.7527 72.1108 17.5989C72.7261 17.445 73.3799 17.4066 74.0721 17.4835C74.7643 17.5604 75.418 17.7527 76.0333 18.0603C76.6486 18.2911 77.0332 18.5602 77.187 18.8679L78.6868 83.8195C79.5328 82.4351 80.3019 80.5123 80.9941 78.0512C81.7632 75.5131 82.6477 72.8212 83.6475 69.9755C84.6474 67.0528 85.8011 64.1687 87.1085 61.323C88.493 58.4003 90.185 55.7853 92.1847 53.478C94.1844 51.1707 96.6071 49.4017 99.4528 48.1711C102.375 46.8636 105.798 46.4022 109.72 46.7867C112.335 46.7867 114.451 47.6327 116.066 49.3248C117.681 50.9399 118.527 53.0934 118.604 55.7853L119.757 101.817C119.757 102.124 119.681 102.586 119.527 103.201C119.45 103.74 119.142 104.201 118.604 104.586C118.142 105.047 117.45 105.316 116.527 105.393C115.681 105.547 114.566 105.355 113.181 104.816L111.797 54.0548ZM125.009 102.163C125.009 97.1636 124.894 91.8952 124.663 86.3576C124.509 80.82 124.317 75.2439 124.086 69.6294C123.932 63.9379 123.894 58.3619 123.971 52.9012C124.048 47.4405 124.394 42.3259 125.009 37.5573C125.163 37.4804 125.509 37.442 126.047 37.442C126.663 37.3651 127.086 37.3266 127.316 37.3266C128.393 37.3266 129.239 37.5189 129.854 37.9034C130.547 38.2111 130.893 38.9418 130.893 40.0954C130.893 44.6332 130.854 49.594 130.777 54.9778C130.777 60.2846 130.739 65.7069 130.662 71.2445C130.662 76.7052 130.662 82.1275 130.662 87.5113C130.662 92.8951 130.739 97.7789 130.893 102.163C130.97 103.47 130.7 104.316 130.085 104.701C129.547 105.162 128.854 105.393 128.008 105.393C127.086 105.393 126.316 105.162 125.701 104.701C125.086 104.316 124.855 103.47 125.009 102.163ZM122.471 19.5601C122.471 18.6372 122.778 18.0219 123.394 17.7142C124.009 17.4066 124.701 17.2528 125.47 17.2528C127.009 17.2528 127.97 17.7527 128.355 18.7525C128.739 19.7524 128.931 20.906 128.931 22.2135C128.47 23.0596 127.893 23.6749 127.201 24.0594C126.509 24.3671 125.778 24.444 125.009 24.2901C124.317 24.0594 123.701 23.5595 123.163 22.7904C122.702 22.0213 122.471 20.9445 122.471 19.5601ZM141.336 102.97C140.49 92.5874 139.721 82.2044 139.028 71.8214C138.413 61.3614 137.721 50.5169 136.952 39.2879C136.952 37.442 137.952 36.519 139.951 36.519H140.874C141.105 36.519 141.374 36.8267 141.682 37.442C141.989 38.0573 142.297 39.2109 142.605 40.903C142.989 42.5181 143.374 45.0177 143.758 48.4018C144.22 51.709 144.758 56.0545 145.374 61.4383C145.989 66.8221 146.681 73.5519 147.45 81.6275C149.065 76.3976 150.334 71.3214 151.257 66.3991C152.18 61.4768 153.372 57.0159 154.834 53.0165C156.295 48.9402 158.333 45.3638 160.948 42.2874C163.64 39.2109 167.486 36.9421 172.485 35.4807C175.254 35.9422 177.484 37.6343 179.176 40.5569C180.868 43.4026 182.214 46.9405 183.214 51.1707C184.214 55.4008 184.906 60.0155 185.29 65.0147C185.675 69.937 185.906 74.6671 185.983 79.2048C186.06 83.7426 186.098 87.8189 186.098 91.4337C186.098 94.9717 186.175 97.5097 186.329 99.048C186.098 99.6633 185.752 100.202 185.29 100.663C184.829 101.125 184.291 101.471 183.675 101.701C183.137 101.855 182.599 101.894 182.06 101.817C181.522 101.663 181.022 101.24 180.56 100.548C180.56 99.7017 180.484 97.9712 180.33 95.3562C180.176 92.7412 179.984 89.7032 179.753 86.2422C179.522 82.7043 179.253 78.9741 178.945 75.0516C178.715 71.0522 178.484 67.322 178.253 63.861C178.099 60.3231 177.945 57.2467 177.792 54.6317C177.638 52.0167 177.522 50.2862 177.446 49.4402C175.83 46.5944 174.215 44.9793 172.6 44.5947C171.062 44.2102 169.485 44.7101 167.87 46.0945C166.332 47.4789 164.832 49.594 163.371 52.4397C161.909 55.2854 160.525 58.5157 159.218 62.1305C157.91 65.6684 156.679 69.3986 155.526 73.3211C154.372 77.2436 153.372 81.0507 152.526 84.7425C151.68 88.3573 150.95 91.6645 150.334 94.664C149.796 97.5866 149.45 99.8555 149.296 101.471C149.065 102.009 148.565 102.547 147.796 103.086C147.104 103.547 146.335 103.893 145.489 104.124C144.72 104.355 143.912 104.432 143.066 104.355C142.297 104.201 141.72 103.74 141.336 102.97ZM194.58 15.8684C196.195 14.3301 197.464 13.7148 198.387 14.0225C199.387 14.3301 200.117 15.3684 200.579 17.1374C201.04 18.9063 201.31 21.2137 201.386 24.0594C201.463 26.9051 201.425 30.1354 201.271 33.7502C201.194 37.2882 201.002 41.0568 200.694 45.0562C200.387 48.9787 200.117 52.8627 199.887 56.7083C199.656 60.4769 199.502 64.0918 199.425 67.5528C199.348 71.0138 199.464 74.0133 199.771 76.5514H200.117C200.271 76.5514 200.387 76.5129 200.464 76.436C204.463 72.4366 208.039 68.2065 211.193 63.7457C214.346 59.2848 217.192 55.0931 219.73 51.1707C222.268 47.1713 224.498 43.7103 226.421 40.7876C228.421 37.865 230.267 35.8653 231.959 34.7885C233.112 34.7885 234.074 34.9808 234.843 35.3654C235.689 35.7499 236.112 36.6344 236.112 38.0188C236.112 38.1726 236.074 38.4418 235.997 38.8264C235.997 39.134 235.997 39.3648 235.997 39.5186C234.074 43.4411 231.959 47.402 229.651 51.4014C227.344 55.3239 224.844 59.131 222.153 62.8227C219.461 66.5145 216.538 70.0139 213.385 73.3211C210.308 76.6283 206.963 79.6279 203.348 82.3197C203.348 82.3967 203.309 82.5505 203.232 82.7812C203.232 82.935 203.232 83.0504 203.232 83.1273C203.232 83.8964 203.848 84.7425 205.078 85.6654C206.386 86.5883 208.001 87.4728 209.924 88.3188C211.923 89.1649 214.115 90.0109 216.5 90.8569C218.961 91.7029 221.345 92.4336 223.652 93.0489C226.037 93.6642 228.229 94.1641 230.228 94.5487C232.305 94.9332 233.92 95.1255 235.074 95.1255C235.074 95.4331 235.074 96.01 235.074 96.856C235.151 97.702 235.112 98.5865 234.958 99.5094C234.804 100.432 234.535 101.278 234.151 102.048C233.766 102.74 233.151 103.086 232.305 103.086H231.843C231.69 103.086 231.574 103.047 231.497 102.97L198.502 89.7032C198.425 94.241 198.118 97.9328 197.579 100.778C197.041 103.547 196.387 105.585 195.618 106.893C194.926 108.277 194.157 108.931 193.311 108.854C192.542 108.777 191.849 108.162 191.234 107.008L194.58 15.8684ZM323.103 101.471C322.719 99.471 322.373 97.0867 322.065 94.3179C321.834 91.4722 321.565 88.6265 321.257 85.7808C320.95 82.8581 320.565 80.1278 320.104 77.5897C319.719 75.0516 319.104 72.975 318.258 71.3599C314.335 79.3587 310.874 85.6654 307.875 90.2801C304.875 94.8178 302.222 98.0866 299.915 100.086C297.684 102.009 295.8 102.932 294.262 102.855C292.723 102.778 291.454 102.086 290.454 100.778C289.455 99.471 288.724 97.8174 288.262 95.8177C287.878 93.7411 287.609 91.8183 287.455 90.0493C287.455 88.3573 287.839 85.973 288.609 82.8966C289.378 79.8201 290.416 76.4745 291.723 72.8597C293.031 69.1679 294.569 65.4377 296.338 61.6691C298.184 57.9004 300.145 54.4778 302.222 51.4014C304.298 48.3249 306.452 45.7869 308.682 43.7872C310.913 41.7875 313.143 40.7876 315.374 40.7876C318.681 40.2492 321.104 40.9799 322.642 42.9796C324.257 44.9024 324.565 48.1711 323.565 52.7858C323.565 57.8619 323.757 62.2074 324.142 65.8223C324.603 69.4371 325.065 72.8981 325.526 76.2053C326.064 79.5125 326.526 82.9735 326.91 86.5883C327.372 90.2032 327.603 94.5487 327.603 99.6248C327.603 100.548 327.487 101.355 327.257 102.048C327.103 102.663 326.18 102.97 324.488 102.97C324.257 102.97 323.949 102.778 323.565 102.394C323.257 102.009 323.103 101.701 323.103 101.471ZM316.873 49.9016C316.027 48.671 314.874 48.5557 313.412 49.5555C311.951 50.5554 310.413 52.209 308.798 54.5163C307.183 56.8236 305.529 59.5924 303.837 62.8227C302.145 66.053 300.568 69.3217 299.107 72.6289C297.646 75.9361 296.377 79.0895 295.3 82.089C294.223 85.0116 293.492 87.4344 293.108 89.3571C293.108 92.1259 293.531 93.7026 294.377 94.0872C295.223 94.3948 296.261 93.9334 297.492 92.7028C298.722 91.4722 300.107 89.7032 301.645 87.3959C303.26 85.0886 304.798 82.6274 306.26 80.0124C307.798 77.3974 309.221 74.8593 310.528 72.3982C311.913 69.937 312.989 67.9373 313.759 66.3991C314.451 64.784 314.989 63.2842 315.374 61.8998C315.758 60.5154 316.066 59.2079 316.297 57.9773C316.604 56.6698 316.758 55.3623 316.758 54.0548C316.835 52.7473 316.873 51.3629 316.873 49.9016ZM336.084 102.97C335.238 92.5874 334.469 82.2044 333.777 71.8214C333.162 61.3614 332.47 50.5169 331.7 39.2879C331.7 37.442 332.7 36.519 334.7 36.519H335.623C335.854 36.519 336.123 36.8267 336.43 37.442C336.738 38.0573 337.046 39.2109 337.353 40.903C337.738 42.5181 338.123 45.0177 338.507 48.4018C338.969 51.709 339.507 56.0545 340.122 61.4383C340.738 66.8221 341.43 73.5519 342.199 81.6275C343.814 76.3976 345.083 71.3214 346.006 66.3991C346.929 61.4768 348.121 57.0159 349.582 53.0165C351.044 48.9402 353.082 45.3638 355.697 42.2874C358.389 39.2109 362.234 36.9421 367.233 35.4807C370.002 35.9422 372.233 37.6343 373.925 40.5569C375.617 43.4026 376.963 46.9405 377.963 51.1707C378.962 55.4008 379.655 60.0155 380.039 65.0147C380.424 69.937 380.655 74.6671 380.731 79.2048C380.808 83.7426 380.847 87.8189 380.847 91.4337C380.847 94.9717 380.924 97.5097 381.078 99.048C380.847 99.6633 380.501 100.202 380.039 100.663C379.578 101.125 379.039 101.471 378.424 101.701C377.886 101.855 377.347 101.894 376.809 101.817C376.271 101.663 375.771 101.24 375.309 100.548C375.309 99.7017 375.232 97.9712 375.078 95.3562C374.925 92.7412 374.732 89.7032 374.502 86.2422C374.271 82.7043 374.002 78.9741 373.694 75.0516C373.463 71.0522 373.233 67.322 373.002 63.861C372.848 60.3231 372.694 57.2467 372.54 54.6317C372.387 52.0167 372.271 50.2862 372.194 49.4402C370.579 46.5944 368.964 44.9793 367.349 44.5947C365.811 44.2102 364.234 44.7101 362.619 46.0945C361.081 47.4789 359.581 49.594 358.119 52.4397C356.658 55.2854 355.274 58.5157 353.966 62.1305C352.659 65.6684 351.428 69.3986 350.275 73.3211C349.121 77.2436 348.121 81.0507 347.275 84.7425C346.429 88.3573 345.698 91.6645 345.083 94.664C344.545 97.5866 344.199 99.8555 344.045 101.471C343.814 102.009 343.314 102.547 342.545 103.086C341.853 103.547 341.084 103.893 340.238 104.124C339.468 104.355 338.661 104.432 337.815 104.355C337.046 104.201 336.469 103.74 336.084 102.97ZM411.248 83.3581C410.479 85.127 409.479 87.1652 408.249 89.4725C407.095 91.7798 405.711 93.9718 404.096 96.0484C402.557 98.125 400.75 99.894 398.673 101.355C396.597 102.817 394.289 103.547 391.751 103.547C390.598 103.547 389.675 103.432 388.982 103.201C388.367 102.894 387.79 102.471 387.252 101.932C386.791 101.394 386.329 100.74 385.868 99.9709C385.483 99.2018 384.983 98.3558 384.368 97.4328C384.137 93.6642 383.983 89.6263 383.906 85.3193C383.906 80.9353 384.137 76.5899 384.599 72.2828C385.06 67.8989 385.829 63.7841 386.906 59.9385C388.06 56.093 389.636 52.8242 391.636 50.1324C393.713 47.4405 396.289 45.5177 399.366 44.364C402.442 43.2103 406.172 43.1334 410.556 44.1333C410.787 41.9798 410.825 39.0956 410.671 35.4807C410.518 31.8659 410.287 28.0588 409.979 24.0594C409.672 20.06 409.364 16.2145 409.056 12.5227C408.749 8.75405 408.556 5.6776 408.48 3.29335C408.48 2.60114 408.787 2.10122 409.402 1.79358C410.095 1.40902 410.825 1.17829 411.594 1.10137C412.364 1.02446 413.094 1.02446 413.786 1.10137C414.556 1.17829 415.055 1.29365 415.286 1.44747C415.132 10.9076 415.094 20.2138 415.171 29.3663C415.248 38.4418 415.325 47.5174 415.402 56.5929C415.555 65.5915 415.709 74.5517 415.863 83.4734C416.017 92.3951 416.094 101.317 416.094 110.239C416.094 111.085 416.017 111.969 415.863 112.892C415.786 113.892 415.132 114.392 413.902 114.392C413.44 114.392 412.979 114.238 412.517 113.93C412.056 113.7 411.748 113.315 411.594 112.777L411.248 83.3581ZM406.288 49.9016C403.903 49.7478 401.673 50.7092 399.596 52.7858C397.597 54.7855 395.828 57.4005 394.289 60.6308C392.828 63.861 391.636 67.4374 390.713 71.3599C389.79 75.2054 389.213 78.9356 388.982 82.5505C388.829 86.0884 389.059 89.2418 389.675 92.0106C390.367 94.7794 391.559 96.6637 393.251 97.6636C394.943 97.6636 396.52 97.0098 397.981 95.7023C399.442 94.3179 400.788 92.5874 402.019 90.5108C403.25 88.4342 404.326 86.1269 405.249 83.5888C406.172 80.9738 406.941 78.4742 407.557 76.0899C408.249 73.7057 408.749 71.5522 409.056 69.6294C409.441 67.6297 409.633 66.1299 409.633 65.1301C409.633 64.361 409.672 63.1304 409.749 61.4383C409.825 59.7463 409.787 58.0542 409.633 56.3622C409.479 54.6701 409.133 53.1704 408.595 51.8629C408.133 50.5554 407.364 49.9016 406.288 49.9016ZM471.705 83.8195C471.705 81.3584 471.936 78.0127 472.397 73.7826C472.936 69.5525 473.705 65.0147 474.705 60.1693C475.782 55.3239 477.089 50.44 478.627 45.5177C480.165 40.5184 481.973 36.0191 484.05 32.0197C486.203 28.0203 488.626 24.7516 491.318 22.2135C494.086 19.6755 497.124 18.4064 500.432 18.4064C502.354 18.4064 503.97 18.7525 505.277 19.4447C506.661 20.1369 507.777 21.0983 508.623 22.3289C509.546 23.4826 510.199 24.8285 510.584 26.3667C511.045 27.8281 511.276 29.4432 511.276 31.2122C509.892 31.2122 508.777 30.8661 507.93 30.1739C507.084 29.4047 506.315 28.5972 505.623 27.7512C504.931 26.9051 504.2 26.136 503.431 25.4438C502.739 24.6747 501.778 24.2901 500.547 24.2901C498.086 24.2901 495.817 25.4823 493.74 27.8665C491.664 30.1739 489.779 33.1349 488.087 36.7498C486.395 40.3646 484.896 44.4025 483.588 48.8633C482.281 53.2473 481.165 57.5543 480.242 61.7844C479.396 65.9376 478.743 69.7447 478.281 73.2058C477.82 76.5899 477.589 79.1279 477.589 80.82C477.589 83.0504 477.704 85.2424 477.935 87.3959C478.166 89.4725 478.666 91.3568 479.435 93.0489C480.204 94.7409 481.319 96.1253 482.78 97.2021C484.242 98.2019 486.318 98.7019 489.01 98.7019C492.087 98.7019 495.125 97.702 498.124 95.7023C501.201 93.7026 504.046 91.2799 506.661 88.4342C509.276 85.5116 511.545 82.4351 513.468 79.2048C515.391 75.8977 516.775 73.0135 517.621 70.5523C517.775 70.4754 518.121 70.4369 518.66 70.4369C519.198 70.36 519.544 70.3216 519.698 70.3216C520.621 70.3216 521.467 70.4369 522.236 70.6677C523.082 70.8215 523.505 71.5137 523.505 72.7443C523.044 75.2054 521.967 77.8204 520.275 80.5892C518.583 83.2811 516.583 85.9346 514.276 88.5496C511.968 91.1646 509.43 93.5873 506.661 95.8177C503.893 98.0481 501.201 99.9324 498.586 101.471C495.971 103.009 493.548 104.047 491.318 104.586C489.087 105.201 487.28 105.162 485.895 104.47C483.357 104.47 481.165 103.778 479.319 102.394C477.551 100.932 476.089 99.1633 474.936 97.0867C473.859 95.0101 473.051 92.7797 472.513 90.3954C471.974 88.0112 471.705 85.8192 471.705 83.8195ZM527.026 48.8633V47.9404C527.026 47.1713 527.295 46.6329 527.834 46.3252C528.449 46.0176 529.141 45.8638 529.91 45.8638C530.525 45.8638 531.102 45.9407 531.641 46.0945C532.179 46.1714 532.602 46.5944 532.91 47.3635C533.14 48.5172 533.371 50.1324 533.602 52.209C533.833 54.2087 534.102 56.4391 534.41 58.9002C534.717 61.3614 535.025 63.9764 535.332 66.7452C535.717 69.4371 536.063 72.0136 536.371 74.4748C536.755 76.859 537.14 79.0126 537.524 80.9353C537.909 82.8581 538.332 84.3194 538.793 85.3193C538.563 77.9358 538.793 71.5522 539.486 66.1684C540.178 60.7077 541.485 56.2853 543.408 52.9012C545.408 49.4402 548.1 47.0559 551.484 45.7484C554.945 44.364 559.252 44.0564 564.405 44.8255C566.789 44.8255 567.981 46.0945 567.981 48.6326C567.981 49.6324 567.328 50.3246 566.02 50.7092C564.713 51.0168 563.251 51.2476 561.636 51.4014C560.021 51.4783 558.444 51.5937 556.906 51.7475C555.368 51.9013 554.253 52.2859 553.56 52.9012C550.792 54.4394 548.83 56.8236 547.677 60.0539C546.6 63.2842 545.831 67.0913 545.369 71.4752C544.908 75.8592 544.562 80.6662 544.331 85.8961C544.177 91.0492 543.677 96.3561 542.831 101.817C542.831 102.586 542.524 103.163 541.908 103.547C541.293 103.932 540.524 104.124 539.601 104.124C538.755 104.124 537.909 103.932 537.063 103.547C536.294 103.163 535.679 102.586 535.217 101.817L527.026 48.8633ZM574.848 79.5509C574.463 79.6279 573.887 79.7432 573.117 79.897C572.348 80.0509 571.541 80.0893 570.695 80.0124C569.849 79.9355 569.118 79.7048 568.503 79.3202C567.811 78.9356 567.465 78.2819 567.465 77.359C567.465 76.8206 567.58 76.436 567.811 76.2053C568.041 75.9746 568.426 75.6285 568.964 75.167C570.656 73.7826 572.079 72.0136 573.233 69.8601C574.463 67.6297 575.579 65.2839 576.578 62.8227C577.578 60.2846 578.617 57.785 579.693 55.3239C580.847 52.7858 582.155 50.5169 583.616 48.5172C585.077 46.5175 586.885 44.9024 589.038 43.6718C591.192 42.4412 593.845 41.8644 596.998 41.9413C598.306 41.9413 599.767 42.2489 601.382 42.8642C602.998 43.4795 604.497 44.3255 605.882 45.4023C607.266 46.4022 608.42 47.6327 609.343 49.094C610.266 50.5554 610.727 52.1705 610.727 53.9395C611.112 54.5548 610.727 55.4392 609.573 56.5929C608.497 57.7466 606.997 59.0156 605.074 60.4C603.151 61.7075 600.959 63.0919 598.498 64.5532C596.114 65.9376 593.807 67.2451 591.576 68.4757C589.346 69.7063 587.385 70.783 585.692 71.706C584 72.6289 582.885 73.3211 582.347 73.7826C581.962 74.5517 581.655 75.4362 581.424 76.436C581.193 77.4359 581.001 78.3973 580.847 79.3202C580.77 80.1662 580.693 80.9738 580.616 81.7429C580.616 82.4351 580.616 82.9735 580.616 83.3581C580.616 84.8194 580.539 86.4345 580.386 88.2035C580.309 89.9724 580.386 91.6645 580.616 93.2796C580.924 94.8178 581.578 96.1253 582.578 97.2021C583.577 98.2019 585.269 98.7019 587.654 98.7019C590.192 98.7019 592.576 98.0866 594.806 96.856C597.037 95.5485 599.114 93.9718 601.036 92.1259C602.959 90.2801 604.69 88.2804 606.228 86.1269C607.843 83.9733 609.266 81.9736 610.496 80.1278C611.804 78.205 612.958 76.6283 613.957 75.3977C614.957 74.1671 615.803 73.5519 616.495 73.5519C617.265 73.5519 618.072 73.7057 618.918 74.0133C619.841 74.2441 620.303 74.8593 620.303 75.8592C620.303 77.2436 619.726 78.8972 618.572 80.82C617.495 82.7428 616.034 84.7809 614.188 86.9344C612.419 89.0879 610.343 91.2415 607.958 93.395C605.651 95.4716 603.305 97.3559 600.921 99.048C598.537 100.663 596.191 102.009 593.884 103.086C591.576 104.086 589.538 104.586 587.769 104.586C584.308 104.586 581.693 103.74 579.924 102.048C578.155 100.355 576.886 98.2404 576.117 95.7023C575.425 93.1642 575.04 90.4724 574.963 87.6266C574.963 84.704 574.925 82.0121 574.848 79.5509ZM596.076 48.4018C594.768 48.4018 593.384 49.0556 591.922 50.3631C590.461 51.5937 589.077 53.1319 587.769 54.9778C586.539 56.7467 585.5 58.5926 584.654 60.5154C583.885 62.3613 583.501 63.8995 583.501 65.1301C584.654 65.1301 586.308 64.7071 588.461 63.861C590.692 62.9381 592.884 61.8229 595.037 60.5154C597.191 59.2079 599.075 57.8235 600.69 56.3622C602.305 54.9009 603.113 53.5165 603.113 52.209C603.113 51.5168 602.844 50.9399 602.305 50.4785C601.767 50.017 601.113 49.6324 600.344 49.3248C599.652 49.0171 598.921 48.7864 598.152 48.6326C597.383 48.4788 596.691 48.4018 596.076 48.4018ZM656.472 101.471C656.088 99.471 655.742 97.0867 655.434 94.3179C655.203 91.4722 654.934 88.6265 654.627 85.7808C654.319 82.8581 653.934 80.1278 653.473 77.5897C653.088 75.0516 652.473 72.975 651.627 71.3599C647.705 79.3587 644.244 85.6654 641.244 90.2801C638.244 94.8178 635.591 98.0866 633.284 100.086C631.053 102.009 629.169 102.932 627.631 102.855C626.092 102.778 624.823 102.086 623.824 100.778C622.824 99.471 622.093 97.8174 621.632 95.8177C621.247 93.7411 620.978 91.8183 620.824 90.0493C620.824 88.3573 621.209 85.973 621.978 82.8966C622.747 79.8201 623.785 76.4745 625.093 72.8597C626.4 69.1679 627.938 65.4377 629.707 61.6691C631.553 57.9004 633.514 54.4778 635.591 51.4014C637.668 48.3249 639.821 45.7869 642.052 43.7872C644.282 41.7875 646.512 40.7876 648.743 40.7876C652.05 40.2492 654.473 40.9799 656.011 42.9796C657.626 44.9024 657.934 48.1711 656.934 52.7858C656.934 57.8619 657.126 62.2074 657.511 65.8223C657.972 69.4371 658.434 72.8981 658.895 76.2053C659.434 79.5125 659.895 82.9735 660.28 86.5883C660.741 90.2032 660.972 94.5487 660.972 99.6248C660.972 100.548 660.856 101.355 660.626 102.048C660.472 102.663 659.549 102.97 657.857 102.97C657.626 102.97 657.318 102.778 656.934 102.394C656.626 102.009 656.472 101.701 656.472 101.471ZM650.243 49.9016C649.397 48.671 648.243 48.5557 646.782 49.5555C645.32 50.5554 643.782 52.209 642.167 54.5163C640.552 56.8236 638.898 59.5924 637.206 62.8227C635.514 66.053 633.937 69.3217 632.476 72.6289C631.015 75.9361 629.746 79.0895 628.669 82.089C627.592 85.0116 626.862 87.4344 626.477 89.3571C626.477 92.1259 626.9 93.7026 627.746 94.0872C628.592 94.3948 629.63 93.9334 630.861 92.7028C632.092 91.4722 633.476 89.7032 635.014 87.3959C636.629 85.0886 638.168 82.6274 639.629 80.0124C641.167 77.3974 642.59 74.8593 643.897 72.3982C645.282 69.937 646.359 67.9373 647.128 66.3991C647.82 64.784 648.358 63.2842 648.743 61.8998C649.127 60.5154 649.435 59.2079 649.666 57.9773C649.973 56.6698 650.127 55.3623 650.127 54.0548C650.204 52.7473 650.243 51.3629 650.243 49.9016ZM667.723 55.2085C666.954 55.5931 666.223 56.0161 665.531 56.4775C664.916 56.8621 664.3 57.2467 663.685 57.6312C663.07 57.9389 662.455 58.1696 661.839 58.3234C661.224 58.4772 660.57 58.4772 659.878 58.3234C659.417 58.3234 659.032 58.0542 658.724 57.5158C658.417 56.9006 658.186 56.2468 658.032 55.5546C657.801 54.7855 657.648 54.0548 657.571 53.3626C657.494 52.5935 657.494 52.0167 657.571 51.6321L668.646 45.2869L669.338 15.753C669.492 14.7531 670.107 14.3686 671.184 14.5993C672.261 14.7531 673.376 14.9839 674.53 15.2915C674.684 15.2915 674.914 15.3684 675.222 15.5222C675.606 15.5992 675.876 15.6761 676.029 15.753C675.876 17.8296 675.683 20.0985 675.453 22.5596C675.299 24.9439 675.145 27.3666 674.991 29.8278C674.837 32.212 674.722 34.5578 674.645 36.8651C674.645 39.1725 674.76 41.2491 674.991 43.095L692.296 38.2496C692.604 38.1726 692.835 38.4034 692.988 38.9418C693.219 39.4032 693.411 39.9801 693.565 40.6723C693.796 41.3645 693.95 42.0567 694.027 42.7489C694.104 43.4411 694.142 43.7872 694.142 43.7872L674.53 52.0936C674.53 52.7858 674.568 54.4394 674.645 57.0544C674.799 59.6694 674.953 62.7843 675.107 66.3991C675.26 69.937 675.414 73.7826 675.568 77.9358C675.722 82.0121 675.876 85.8192 676.029 89.3571C676.183 92.8951 676.299 96.01 676.376 98.7019C676.452 101.317 676.491 102.97 676.491 103.663C676.337 105.97 675.645 107.124 674.414 107.124C673.261 107.124 671.992 106.547 670.607 105.393L667.723 55.2085ZM697.317 79.5509C696.932 79.6279 696.356 79.7432 695.586 79.897C694.817 80.0509 694.01 80.0893 693.164 80.0124C692.318 79.9355 691.587 79.7048 690.972 79.3202C690.28 78.9356 689.933 78.2819 689.933 77.359C689.933 76.8206 690.049 76.436 690.28 76.2053C690.51 75.9746 690.895 75.6285 691.433 75.167C693.125 73.7826 694.548 72.0136 695.702 69.8601C696.932 67.6297 698.048 65.2839 699.047 62.8227C700.047 60.2846 701.086 57.785 702.162 55.3239C703.316 52.7858 704.624 50.5169 706.085 48.5172C707.546 46.5175 709.354 44.9024 711.507 43.6718C713.661 42.4412 716.314 41.8644 719.467 41.9413C720.775 41.9413 722.236 42.2489 723.851 42.8642C725.467 43.4795 726.966 44.3255 728.351 45.4023C729.735 46.4022 730.889 47.6327 731.812 49.094C732.735 50.5554 733.196 52.1705 733.196 53.9395C733.581 54.5548 733.196 55.4392 732.042 56.5929C730.966 57.7466 729.466 59.0156 727.543 60.4C725.62 61.7075 723.428 63.0919 720.967 64.5532C718.583 65.9376 716.276 67.2451 714.045 68.4757C711.815 69.7063 709.854 70.783 708.161 71.706C706.469 72.6289 705.354 73.3211 704.816 73.7826C704.431 74.5517 704.124 75.4362 703.893 76.436C703.662 77.4359 703.47 78.3973 703.316 79.3202C703.239 80.1662 703.162 80.9738 703.085 81.7429C703.085 82.4351 703.085 82.9735 703.085 83.3581C703.085 84.8194 703.008 86.4345 702.855 88.2035C702.778 89.9724 702.855 91.6645 703.085 93.2796C703.393 94.8178 704.047 96.1253 705.047 97.2021C706.046 98.2019 707.738 98.7019 710.123 98.7019C712.661 98.7019 715.045 98.0866 717.275 96.856C719.506 95.5485 721.583 93.9718 723.505 92.1259C725.428 90.2801 727.159 88.2804 728.697 86.1269C730.312 83.9733 731.735 81.9736 732.965 80.1278C734.273 78.205 735.427 76.6283 736.426 75.3977C737.426 74.1671 738.272 73.5519 738.964 73.5519C739.734 73.5519 740.541 73.7057 741.387 74.0133C742.31 74.2441 742.772 74.8593 742.772 75.8592C742.772 77.2436 742.195 78.8972 741.041 80.82C739.964 82.7428 738.503 84.7809 736.657 86.9344C734.888 89.0879 732.812 91.2415 730.427 93.395C728.12 95.4716 725.774 97.3559 723.39 99.048C721.006 100.663 718.66 102.009 716.353 103.086C714.045 104.086 712.007 104.586 710.238 104.586C706.777 104.586 704.162 103.74 702.393 102.048C700.624 100.355 699.355 98.2404 698.586 95.7023C697.894 93.1642 697.509 90.4724 697.432 87.6266C697.432 84.704 697.394 82.0121 697.317 79.5509ZM718.545 48.4018C717.237 48.4018 715.853 49.0556 714.391 50.3631C712.93 51.5937 711.546 53.1319 710.238 54.9778C709.008 56.7467 707.969 58.5926 707.123 60.5154C706.354 62.3613 705.97 63.8995 705.97 65.1301C707.123 65.1301 708.777 64.7071 710.93 63.861C713.161 62.9381 715.353 61.8229 717.506 60.5154C719.66 59.2079 721.544 57.8235 723.159 56.3622C724.774 54.9009 725.582 53.5165 725.582 52.209C725.582 51.5168 725.313 50.9399 724.774 50.4785C724.236 50.017 723.582 49.6324 722.813 49.3248C722.121 49.0171 721.39 48.7864 720.621 48.6326C719.852 48.4788 719.16 48.4018 718.545 48.4018Z" fill="#828282" fill-opacity="0.2"/>
</svg>
