<svg width="450" height="100" viewBox="0 0 450 100" fill="none" xmlns="http://www.w3.org/2000/svg">
<rect x="0.925537" width="448.977" height="99.3257" rx="49.6629" fill="white"/>
<path d="M48.5259 70.4689C48.5259 69.6728 49.0234 68.6579 50.0184 67.4241C51.0134 66.1505 52.2473 64.7177 53.7199 63.1257C55.1925 61.5337 56.8044 59.8024 58.5556 57.9318C60.3068 56.0612 61.9187 54.1309 63.3913 52.1409C64.8639 50.111 66.0977 48.0613 67.0927 45.9917C68.0877 43.8823 68.5852 41.8127 68.5852 39.7829C68.5852 38.7083 68.2867 37.7929 67.6897 37.0367C67.0927 36.2407 66.3166 35.5641 65.3614 35.0069C64.446 34.4497 63.3913 34.0119 62.1973 33.6935C61.0431 33.3751 59.869 33.1362 58.675 32.977C57.481 32.778 56.3467 32.6586 55.2721 32.6188C54.1975 32.5392 53.2821 32.4994 52.5259 32.4994C52.3269 32.4994 52.0682 32.5193 51.7498 32.5591C51.4314 32.5591 51.0931 32.579 50.7348 32.6188C50.4164 32.6188 50.1179 32.6387 49.8393 32.6785C49.5607 32.7183 49.4015 32.7382 49.3617 32.7382L48.5856 33.4547C48.5856 33.5343 48.5657 33.8726 48.5259 34.4696C48.5259 35.0666 48.506 35.7432 48.4662 36.4994C48.4662 37.2556 48.4662 38.0317 48.4662 38.8277V40.6784C48.4662 44.6982 48.6055 48.6981 48.8841 52.6782C49.2025 56.6184 49.3617 60.5984 49.3617 64.6182C49.3617 64.857 49.3617 65.1157 49.3617 65.3943C49.4015 65.6729 49.4015 65.9515 49.3617 66.2301C49.3219 66.4689 49.2025 66.6878 49.0035 66.8868C48.8443 67.046 48.5856 67.1256 48.2274 67.1256C47.9886 67.1256 47.7498 67.0659 47.511 66.9465C47.2722 66.8271 47.1329 66.6281 47.0931 66.3495L44.7648 34.9472C44.6454 35.0268 44.4265 35.1462 44.1081 35.3054C43.8295 35.4248 43.531 35.5641 43.2126 35.7233C42.8942 35.8825 42.5758 36.0616 42.2574 36.2606C41.9788 36.4198 41.7997 36.4994 41.7201 36.4994C41.6803 36.4994 41.6007 36.5193 41.4813 36.5591C41.4017 36.5591 41.342 36.5591 41.3022 36.5591C41.1032 36.5591 40.8644 36.5193 40.5858 36.4397C40.347 36.3203 40.2276 36.0815 40.2276 35.7233C40.2276 35.1263 40.347 34.6487 40.5858 34.2905C40.8644 33.8925 41.2027 33.5343 41.6007 33.2159C42.0385 32.8974 42.4962 32.579 42.9738 32.2606C43.4514 31.9422 43.8892 31.5442 44.2872 31.0666C44.725 30.5492 45.0633 29.9124 45.3021 29.1562C45.5807 28.4 45.72 27.4448 45.72 26.2906C46.516 26.2906 47.0135 26.4299 47.2125 26.7085C47.4115 26.9871 47.5309 27.3254 47.5707 27.7234C47.6105 28.0816 47.6503 28.4597 47.6901 28.8577C47.7697 29.2159 48.0682 29.4746 48.5856 29.6338C49.7 29.594 51.0333 29.594 52.5856 29.6338C54.1776 29.6736 55.8293 29.8129 57.5407 30.0517C59.2919 30.2507 61.0033 30.5691 62.6749 31.0069C64.3863 31.4447 65.8987 32.0616 67.2121 32.8576C68.5653 33.6537 69.62 34.6686 70.3763 35.9024C71.1723 37.0964 71.5305 38.569 71.4509 40.3202C70.9335 43.3848 69.9385 46.33 68.4658 49.1558C67.033 51.9817 65.3216 54.708 63.3316 57.3348C61.3814 59.9218 59.2521 62.4093 56.9437 64.7973C54.6751 67.1853 52.4065 69.4738 50.1378 71.6629C50.098 71.6629 50.0383 71.6629 49.9587 71.6629C49.8791 71.7027 49.8194 71.7226 49.7796 71.7226C49.4214 71.7226 49.1229 71.6032 48.8841 71.3644C48.6453 71.1256 48.5259 70.8271 48.5259 70.4689ZM74.8848 58.7676C74.6858 58.8074 74.3873 58.8671 73.9893 58.9467C73.5913 59.0263 73.1734 59.0462 72.7356 59.0064C72.2978 58.9666 71.9197 58.8472 71.6013 58.6482C71.2431 58.4492 71.064 58.1109 71.064 57.6333C71.064 57.3547 71.1237 57.1557 71.2431 57.0363C71.3625 56.9169 71.5615 56.7378 71.8401 56.499C72.7157 55.7826 73.452 54.8672 74.049 53.7528C74.6858 52.5986 75.2629 51.3846 75.7803 50.111C76.2977 48.7976 76.835 47.5041 77.3922 46.2305C77.9892 44.9171 78.6658 43.743 79.422 42.7082C80.1782 41.6734 81.1136 40.8376 82.228 40.2008C83.3424 39.564 84.7155 39.2655 86.3473 39.3053C87.0239 39.3053 87.7801 39.4645 88.6159 39.7829C89.4517 40.1013 90.2278 40.5391 90.9442 41.0963C91.6606 41.6137 92.2576 42.2505 92.7352 43.0067C93.2128 43.7629 93.4516 44.5987 93.4516 45.5141C93.6506 45.8325 93.4516 46.2902 92.8546 46.8872C92.2974 47.4842 91.5213 48.1409 90.5263 48.8573C89.5313 49.5339 88.397 50.2503 87.1234 51.0065C85.8896 51.7229 84.6956 52.3996 83.5414 53.0364C82.3872 53.6732 81.3723 54.2304 80.4967 54.708C79.621 55.1856 79.0439 55.5438 78.7653 55.7826C78.5663 56.1806 78.4071 56.6383 78.2877 57.1557C78.1683 57.6731 78.0688 58.1706 77.9892 58.6482C77.9494 59.086 77.9096 59.5039 77.8698 59.9019C77.8698 60.2601 77.8698 60.5387 77.8698 60.7377C77.8698 61.4939 77.83 62.3297 77.7504 63.2451C77.7106 64.1605 77.7504 65.0361 77.8698 65.8719C78.029 66.6679 78.3673 67.3445 78.8847 67.9017C79.4021 68.4191 80.2777 68.6778 81.5116 68.6778C82.825 68.6778 84.0588 68.3594 85.213 67.7226C86.3672 67.046 87.4418 66.2301 88.4368 65.2749C89.4318 64.3197 90.3273 63.2849 91.1233 62.1705C91.9591 61.0561 92.6954 60.0213 93.3322 59.0661C94.0088 58.0711 94.6058 57.2552 95.1232 56.6184C95.6406 55.9816 96.0784 55.6632 96.4366 55.6632C96.8346 55.6632 97.2525 55.7428 97.6903 55.902C98.1679 56.0214 98.4067 56.3398 98.4067 56.8572C98.4067 57.5736 98.1082 58.4293 97.5112 59.4243C96.954 60.4193 96.1978 61.474 95.2426 62.5884C94.3272 63.7028 93.2526 64.8172 92.0188 65.9316C90.8248 67.0062 89.6109 67.9813 88.3771 68.8569C87.1433 69.6927 85.9294 70.3893 84.7354 70.9465C83.5414 71.4639 82.4867 71.7226 81.5713 71.7226C79.7802 71.7226 78.427 71.2848 77.5116 70.4092C76.5962 69.5335 75.9395 68.439 75.5415 67.1256C75.1833 65.8122 74.9843 64.4192 74.9445 62.9466C74.9445 61.4342 74.9246 60.0412 74.8848 58.7676ZM85.8697 42.6485C85.1931 42.6485 84.4767 42.9868 83.7205 43.6634C82.9643 44.3002 82.2479 45.0962 81.5713 46.0514C80.9345 46.9668 80.3972 47.922 79.9593 48.917C79.5613 49.8722 79.3623 50.6682 79.3623 51.305C79.9593 51.305 80.8151 51.0861 81.9295 50.6483C83.0837 50.1707 84.218 49.5936 85.3324 48.917C86.4468 48.2404 87.4219 47.524 88.2577 46.7678C89.0935 46.0116 89.5114 45.2952 89.5114 44.6186C89.5114 44.2604 89.3721 43.9619 89.0935 43.7231C88.8149 43.4843 88.4766 43.2853 88.0786 43.1261C87.7204 42.9669 87.3423 42.8475 86.9443 42.7679C86.5463 42.6883 86.1881 42.6485 85.8697 42.6485ZM104.885 70.7674C104.885 70.8072 105.303 70.5684 106.139 70.0509C107.015 69.5335 108.03 68.8569 109.184 68.0211C110.378 67.1455 111.592 66.2102 112.826 65.2152C114.059 64.1804 115.074 63.2053 115.87 62.2899C116.666 61.3745 117.084 60.5984 117.124 59.9616C117.204 59.285 116.666 58.8472 115.512 58.6482C114.079 58.4492 112.865 58.4691 111.87 58.7079C110.915 58.9467 110.04 59.2253 109.244 59.5437C108.448 59.8621 107.691 60.1606 106.975 60.4392C106.298 60.7178 105.542 60.8173 104.706 60.7377C102.955 60.7377 101.741 60.2004 101.065 59.1258C100.428 58.0114 100.109 56.5189 100.109 54.6483C100.109 52.7777 100.527 51.0065 101.363 49.3349C102.199 47.6235 103.274 46.1509 104.587 44.9171C105.9 43.6833 107.413 42.7082 109.124 41.9918C110.836 41.2356 112.587 40.8575 114.378 40.8575C115.094 40.8575 115.711 40.9172 116.228 41.0366C116.746 41.156 117.005 41.6137 117.005 42.4097C117.005 42.9669 116.766 43.5042 116.288 44.0216C115.811 44.4992 115.273 44.738 114.676 44.738C114.636 44.738 114.537 44.7181 114.378 44.6783C114.219 44.5987 114.059 44.4992 113.9 44.3798C113.741 44.2604 113.582 44.1808 113.423 44.141C113.263 44.0614 113.164 44.0216 113.124 44.0216C111.85 43.6634 110.617 43.8425 109.423 44.5589C108.229 45.2753 107.154 46.2504 106.199 47.4842C105.283 48.6782 104.547 49.9916 103.99 51.4244C103.433 52.8175 103.154 54.0712 103.154 55.1856C103.154 55.6234 103.234 55.9816 103.393 56.2602C103.592 56.499 103.831 56.6781 104.109 56.7975C104.428 56.9169 104.766 56.9965 105.124 57.0363C105.522 57.0363 105.92 57.0363 106.318 57.0363C107.114 57.0363 107.91 56.9169 108.706 56.6781C109.542 56.4393 110.338 56.1607 111.094 55.8423C111.89 55.5239 112.686 55.2453 113.482 55.0065C114.318 54.7677 115.174 54.6483 116.049 54.6483C116.447 54.6483 116.885 54.7677 117.363 55.0065C117.84 55.2055 118.278 55.5239 118.676 55.9617C119.074 56.3597 119.413 56.8373 119.691 57.3945C119.97 57.9119 120.129 58.489 120.169 59.1258C120.408 59.683 120.328 60.4193 119.93 61.3347C119.572 62.2501 119.015 63.2252 118.258 64.26C117.502 65.2948 116.587 66.3495 115.512 67.4241C114.437 68.4589 113.363 69.4141 112.288 70.2897C111.214 71.1256 110.159 71.8022 109.124 72.3196C108.089 72.8768 107.214 73.1355 106.497 73.0957C105.701 73.0957 105.224 72.8569 105.065 72.3793C104.945 71.9017 104.885 71.3644 104.885 70.7674ZM122.289 70.4689C122.289 67.8818 122.23 65.1555 122.11 62.2899C122.031 59.4243 121.931 56.5388 121.812 53.6334C121.732 50.6881 121.712 47.8026 121.752 44.9768C121.792 42.151 121.971 39.5043 122.289 37.0367C122.369 36.9969 122.548 36.977 122.827 36.977C123.145 36.9372 123.364 36.9173 123.483 36.9173C124.04 36.9173 124.478 37.0168 124.797 37.2158C125.155 37.375 125.334 37.7531 125.334 38.3501C125.334 40.6983 125.314 43.2654 125.274 46.0514C125.274 48.7976 125.254 51.6035 125.215 54.4692C125.215 57.295 125.215 60.1009 125.215 62.8869C125.215 65.6729 125.254 68.2002 125.334 70.4689C125.374 71.1455 125.234 71.5833 124.916 71.7823C124.637 72.0211 124.279 72.1405 123.841 72.1405C123.364 72.1405 122.966 72.0211 122.647 71.7823C122.329 71.5833 122.21 71.1455 122.289 70.4689ZM120.976 27.7234C120.976 27.2458 121.135 26.9274 121.453 26.7682C121.772 26.609 122.13 26.5294 122.528 26.5294C123.324 26.5294 123.822 26.7881 124.021 27.3055C124.22 27.8229 124.319 28.4199 124.319 29.0965C124.08 29.5343 123.782 29.8527 123.424 30.0517C123.065 30.2109 122.687 30.2507 122.289 30.1711C121.931 30.0517 121.613 29.793 121.334 29.395C121.095 28.997 120.976 28.4398 120.976 27.7234ZM132.35 95.0057C135.852 94.8067 138.599 93.8913 140.589 92.2595C142.618 90.6277 144.131 88.5182 145.126 85.9312C146.121 83.3442 146.718 80.3791 146.917 77.0359C147.116 73.7325 147.136 70.3096 146.977 66.7674C146.817 63.2252 146.579 59.683 146.26 56.1408C145.982 52.5588 145.862 49.2354 145.902 46.1708C144.191 51.1856 142.579 55.2453 141.066 58.3497C139.554 61.4143 138.141 63.7426 136.827 65.3346C135.554 66.8868 134.38 67.842 133.305 68.2002C132.27 68.5186 131.355 68.4589 130.559 68.0211C129.763 67.5435 129.106 66.8072 128.589 65.8122C128.111 64.7774 127.773 63.7227 127.574 62.6481C127.654 60.8173 128.012 58.8074 128.649 56.6184C129.325 54.3896 130.181 52.2205 131.216 50.111C132.29 47.9618 133.524 45.9718 134.917 44.141C136.31 42.2704 137.783 40.8177 139.335 39.7829C140.887 38.7083 142.499 38.1511 144.171 38.1113C145.842 38.0317 147.454 38.6685 149.006 40.0217C149.046 40.0615 149.106 40.5988 149.185 41.6336C149.305 42.6286 149.424 43.9619 149.544 45.6335C149.703 47.2653 149.862 49.116 150.021 51.1856C150.22 53.2155 150.399 55.2851 150.559 57.3945C150.718 59.4641 150.857 61.4541 150.976 63.3645C151.096 65.2749 151.215 66.9266 151.335 68.3196C151.494 70.5883 151.394 72.9962 151.036 75.5434C150.718 78.0906 150.2 80.5582 149.484 82.9462C148.768 85.374 147.852 87.6426 146.738 89.7521C145.663 91.8615 144.409 93.5928 142.977 94.946C141.584 96.2992 140.012 97.1549 138.26 97.5131C136.549 97.9111 134.718 97.6126 132.768 96.6176C132.648 96.6176 132.469 96.5977 132.231 96.5579C131.992 96.5579 131.793 96.4982 131.634 96.3788C131.514 96.2594 131.494 96.1002 131.574 95.9012C131.653 95.7022 131.912 95.4037 132.35 95.0057ZM130.678 62.2302C131.076 63.464 131.594 64.1008 132.231 64.1406C132.907 64.1406 133.624 63.7227 134.38 62.8869C135.136 62.0113 135.952 60.7974 136.827 59.2452C137.743 57.693 138.638 56.0015 139.514 54.1707C140.39 52.3399 141.245 50.4692 142.081 48.5588C142.957 46.6086 143.773 44.7977 144.529 43.1261C144.529 42.6883 144.429 42.2903 144.23 41.9321C144.031 41.5341 143.594 41.4147 142.917 41.5739C141.803 41.8127 140.708 42.35 139.633 43.1858C138.599 44.0216 137.623 45.0564 136.708 46.2902C135.832 47.4842 135.017 48.8175 134.26 50.2901C133.544 51.7229 132.907 53.1757 132.35 54.6483C131.833 56.0811 131.415 57.4542 131.096 58.7676C130.818 60.081 130.678 61.2352 130.678 62.2302ZM156.261 70.8868C155.823 65.5137 155.425 60.1407 155.067 54.7677C154.749 49.3548 154.391 43.743 153.993 37.9322C153.993 36.977 154.51 36.4994 155.545 36.4994H156.022C156.142 36.4994 156.281 36.6586 156.44 36.977C156.599 37.2954 156.759 37.8924 156.918 38.768C157.117 39.6038 157.316 40.8973 157.515 42.6485C157.754 44.3599 158.032 46.6086 158.351 49.3946C158.669 52.1807 159.027 55.6632 159.425 59.8422C160.261 57.1358 160.918 54.509 161.395 51.9618C161.873 49.4145 162.49 47.1061 163.246 45.0365C164.002 42.9271 165.057 41.0764 166.41 39.4844C167.803 37.8924 169.793 36.7183 172.38 35.9621C173.813 36.2009 174.967 37.0765 175.843 38.5889C176.718 40.0615 177.415 41.8923 177.932 44.0813C178.45 46.2703 178.808 48.6583 179.007 51.2453C179.206 53.7926 179.325 56.2403 179.365 58.5885C179.405 60.9367 179.425 63.0461 179.425 64.9167C179.425 66.7475 179.465 68.0609 179.544 68.8569C179.425 69.1753 179.246 69.4539 179.007 69.6927C178.768 69.9315 178.49 70.1106 178.171 70.23C177.893 70.3096 177.614 70.3295 177.335 70.2897C177.057 70.2101 176.798 69.9912 176.559 69.633C176.559 69.1952 176.519 68.2997 176.44 66.9465C176.36 65.5933 176.261 64.0212 176.141 62.2302C176.022 60.3994 175.883 58.4691 175.723 56.4393C175.604 54.3697 175.485 52.4394 175.365 50.6483C175.286 48.8175 175.206 47.2255 175.126 45.8723C175.047 44.5191 174.987 43.6236 174.947 43.1858C174.112 41.7132 173.276 40.8774 172.44 40.6784C171.644 40.4794 170.828 40.7381 169.992 41.4545C169.196 42.1709 168.42 43.2654 167.664 44.738C166.908 46.2106 166.191 47.8822 165.515 49.7528C164.838 51.5836 164.201 53.514 163.604 55.5438C163.007 57.5736 162.49 59.5437 162.052 61.4541C161.614 63.3247 161.236 65.0361 160.918 66.5883C160.639 68.1007 160.46 69.2748 160.38 70.1106C160.261 70.3893 160.002 70.6679 159.604 70.9465C159.246 71.1853 158.848 71.3644 158.41 71.4838C158.012 71.6032 157.594 71.643 157.157 71.6032C156.759 71.5236 156.46 71.2848 156.261 70.8868ZM183.814 58.7676C183.615 58.8074 183.317 58.8671 182.919 58.9467C182.521 59.0263 182.103 59.0462 181.665 59.0064C181.227 58.9666 180.849 58.8472 180.531 58.6482C180.172 58.4492 179.993 58.1109 179.993 57.6333C179.993 57.3547 180.053 57.1557 180.172 57.0363C180.292 56.9169 180.491 56.7378 180.769 56.499C181.645 55.7826 182.381 54.8672 182.978 53.7528C183.615 52.5986 184.192 51.3846 184.71 50.111C185.227 48.7976 185.764 47.5041 186.321 46.2305C186.918 44.9171 187.595 43.743 188.351 42.7082C189.107 41.6734 190.043 40.8376 191.157 40.2008C192.272 39.564 193.645 39.2655 195.276 39.3053C195.953 39.3053 196.709 39.4645 197.545 39.7829C198.381 40.1013 199.157 40.5391 199.873 41.0963C200.59 41.6137 201.187 42.2505 201.664 43.0067C202.142 43.7629 202.381 44.5987 202.381 45.5141C202.58 45.8325 202.381 46.2902 201.784 46.8872C201.227 47.4842 200.451 48.1409 199.456 48.8573C198.461 49.5339 197.326 50.2503 196.053 51.0065C194.819 51.7229 193.625 52.3996 192.471 53.0364C191.316 53.6732 190.301 54.2304 189.426 54.708C188.55 55.1856 187.973 55.5438 187.695 55.7826C187.496 56.1806 187.336 56.6383 187.217 57.1557C187.098 57.6731 186.998 58.1706 186.918 58.6482C186.879 59.086 186.839 59.5039 186.799 59.9019C186.799 60.2601 186.799 60.5387 186.799 60.7377C186.799 61.4939 186.759 62.3297 186.68 63.2451C186.64 64.1605 186.68 65.0361 186.799 65.8719C186.958 66.6679 187.297 67.3445 187.814 67.9017C188.331 68.4191 189.207 68.6778 190.441 68.6778C191.754 68.6778 192.988 68.3594 194.142 67.7226C195.296 67.046 196.371 66.2301 197.366 65.2749C198.361 64.3197 199.257 63.2849 200.053 62.1705C200.888 61.0561 201.625 60.0213 202.261 59.0661C202.938 58.0711 203.535 57.2552 204.052 56.6184C204.57 55.9816 205.008 55.6632 205.366 55.6632C205.764 55.6632 206.182 55.7428 206.62 55.902C207.097 56.0214 207.336 56.3398 207.336 56.8572C207.336 57.5736 207.037 58.4293 206.44 59.4243C205.883 60.4193 205.127 61.474 204.172 62.5884C203.256 63.7028 202.182 64.8172 200.948 65.9316C199.754 67.0062 198.54 67.9813 197.306 68.8569C196.073 69.6927 194.859 70.3893 193.665 70.9465C192.471 71.4639 191.416 71.7226 190.5 71.7226C188.709 71.7226 187.356 71.2848 186.441 70.4092C185.525 69.5335 184.869 68.439 184.471 67.1256C184.113 65.8122 183.914 64.4192 183.874 62.9466C183.874 61.4342 183.854 60.0412 183.814 58.7676ZM194.799 42.6485C194.122 42.6485 193.406 42.9868 192.65 43.6634C191.893 44.3002 191.177 45.0962 190.5 46.0514C189.864 46.9668 189.326 47.922 188.889 48.917C188.491 49.8722 188.292 50.6682 188.292 51.305C188.889 51.305 189.744 51.0861 190.859 50.6483C192.013 50.1707 193.147 49.5936 194.262 48.917C195.376 48.2404 196.351 47.524 197.187 46.7678C198.023 46.0116 198.441 45.2952 198.441 44.6186C198.441 44.2604 198.301 43.9619 198.023 43.7231C197.744 43.4843 197.406 43.2853 197.008 43.1261C196.65 42.9669 196.272 42.8475 195.874 42.7679C195.475 42.6883 195.117 42.6485 194.799 42.6485ZM222.173 60.7377C221.775 61.6531 221.257 62.7078 220.62 63.9018C220.023 65.0958 219.307 66.2301 218.471 67.3047C217.675 68.3793 216.74 69.2947 215.665 70.0509C214.591 70.8072 213.397 71.1853 212.083 71.1853C211.486 71.1853 211.009 71.1256 210.651 71.0062C210.332 70.847 210.034 70.6281 209.755 70.3494C209.516 70.0708 209.277 69.7325 209.039 69.3345C208.84 68.9365 208.581 68.4987 208.263 68.0211C208.143 66.0709 208.063 63.9814 208.024 61.7526C208.024 59.484 208.143 57.2353 208.382 55.0065C208.621 52.7379 209.019 50.6085 209.576 48.6185C210.173 46.6285 210.989 44.937 212.024 43.544C213.098 42.151 214.432 41.156 216.024 40.559C217.616 39.962 219.546 39.9222 221.814 40.4396C221.934 39.3252 221.954 37.8327 221.874 35.9621C221.795 34.0915 221.675 32.1213 221.516 30.0517C221.357 27.9821 221.198 25.9921 221.038 24.0817C220.879 22.1315 220.78 20.5395 220.74 19.3057C220.74 18.9475 220.899 18.6888 221.217 18.5296C221.576 18.3306 221.954 18.2112 222.352 18.1714C222.75 18.1316 223.128 18.1316 223.486 18.1714C223.884 18.2112 224.143 18.2709 224.262 18.3505C224.183 23.2459 224.163 28.0617 224.202 32.7979C224.242 37.4944 224.282 42.1908 224.322 46.8872C224.401 51.5438 224.481 56.1806 224.561 60.7974C224.64 65.4142 224.68 70.031 224.68 74.6479C224.68 75.0857 224.64 75.5434 224.561 76.021C224.521 76.5384 224.183 76.7971 223.546 76.7971C223.307 76.7971 223.068 76.7175 222.829 76.5583C222.591 76.4389 222.431 76.2399 222.352 75.9613L222.173 60.7377ZM219.606 43.4246C218.372 43.345 217.218 43.8425 216.143 44.9171C215.108 45.9519 214.193 47.3051 213.397 48.9767C212.641 50.6483 212.024 52.4991 211.546 54.5289C211.068 56.5189 210.77 58.4492 210.651 60.3198C210.571 62.1506 210.69 63.7824 211.009 65.2152C211.367 66.648 211.984 67.6231 212.859 68.1405C213.735 68.1405 214.551 67.8022 215.307 67.1256C216.063 66.4092 216.76 65.5137 217.397 64.4391C218.033 63.3645 218.591 62.1705 219.068 60.8571C219.546 59.5039 219.944 58.2104 220.262 56.9766C220.62 55.7428 220.879 54.6284 221.038 53.6334C221.237 52.5986 221.337 51.8225 221.337 51.305C221.337 50.907 221.357 50.2702 221.397 49.3946C221.436 48.519 221.416 47.6434 221.337 46.7678C221.257 45.8922 221.078 45.1161 220.8 44.4395C220.561 43.7629 220.163 43.4246 219.606 43.4246ZM254.473 71.245C254.274 68.1007 254.194 64.7575 254.234 61.2153C254.314 57.6731 254.413 53.8523 254.533 49.7528C254.652 45.6534 254.752 41.2157 254.831 36.4397C254.951 31.6238 254.97 26.3702 254.891 20.6788C255.329 20.6788 255.786 20.6589 256.264 20.6191C256.742 20.5395 257.159 20.5196 257.518 20.5594C257.916 20.5992 258.234 20.7186 258.473 20.9176C258.751 21.1166 258.891 21.4748 258.891 21.9922C258.891 23.4648 258.831 25.1762 258.712 27.1264C258.632 29.0368 258.513 31.1462 258.353 33.4547C258.194 35.7233 258.055 38.171 257.936 40.7978C257.856 43.4246 257.816 46.1907 257.816 49.0961C259.209 47.2653 260.503 45.7728 261.697 44.6186C262.891 43.4644 264.025 42.549 265.1 41.8724C266.174 41.156 267.229 40.7182 268.264 40.559C269.299 40.36 270.313 40.3003 271.308 40.3799C272.463 40.3799 273.398 40.6983 274.114 41.3351C274.871 41.9719 275.448 42.7679 275.846 43.7231C276.244 44.6783 276.522 45.7529 276.681 46.9469C276.841 48.1011 276.92 49.2354 276.92 50.3498C276.92 51.1458 276.861 52.0016 276.741 52.917C276.662 53.7926 276.443 54.7677 276.084 55.8423C275.726 56.9169 275.169 58.0313 274.413 59.1855C273.696 60.2999 272.682 61.4939 271.368 62.7675C270.055 64.0411 268.383 65.3545 266.353 66.7077C264.363 68.0609 261.935 69.4539 259.07 70.8868C258.115 71.1654 257.339 71.3445 256.742 71.4241C256.184 71.4639 255.727 71.4838 255.368 71.4838C255.05 71.444 254.811 71.4042 254.652 71.3644C254.533 71.3246 254.473 71.2848 254.473 71.245ZM257.04 67.6629C257.239 67.5435 257.776 67.2848 258.652 66.8868C259.528 66.449 260.562 65.8918 261.756 65.2152C262.95 64.5386 264.244 63.7227 265.637 62.7675C267.03 61.8123 268.304 60.6979 269.458 59.4243C270.652 58.1507 271.667 56.7179 272.502 55.1259C273.338 53.5339 273.836 51.7827 273.995 49.8722C273.995 49.315 273.915 48.718 273.756 48.0812C273.597 47.4444 273.338 46.8474 272.98 46.2902C272.662 45.733 272.244 45.2753 271.726 44.9171C271.209 44.5191 270.592 44.3201 269.876 44.3201C268.403 44.3201 267.01 44.7181 265.697 45.5141C264.423 46.3101 263.249 47.3051 262.174 48.4991C261.1 49.6931 260.144 50.9866 259.309 52.3797C258.473 53.7329 257.796 54.9866 257.279 56.1408L257.04 67.6629ZM294.682 71.4241L279.28 46.7678C279.24 46.728 279.2 46.5887 279.16 46.3499C279.12 46.0713 279.101 45.8524 279.101 45.6932C279.101 45.1758 279.18 44.738 279.339 44.3798C279.538 43.9818 280.016 43.7828 280.772 43.7828C280.931 43.7828 281.21 43.8823 281.608 44.0813C282.006 44.2405 282.245 44.3997 282.324 44.5589C283.2 45.9519 284.095 47.5041 285.011 49.2155C285.966 50.9269 286.941 52.6384 287.936 54.3498C288.971 56.0612 290.046 57.7129 291.16 59.3049C292.274 60.8571 293.448 62.1904 294.682 63.3048L296.115 39.9023C296.155 39.9023 296.254 39.9023 296.414 39.9023C296.613 39.8625 296.752 39.8426 296.832 39.8426C297.19 39.8426 297.548 39.9023 297.906 40.0217C298.264 40.1013 298.523 40.36 298.682 40.7978C298.722 42.2306 298.722 44.0017 298.682 46.1111C298.682 48.2205 298.642 50.3896 298.563 52.6185C298.523 54.8473 298.463 56.9965 298.384 59.0661C298.344 61.0959 298.304 62.7277 298.264 63.9615C298.225 64.7575 298.145 65.9515 298.026 67.5435C297.946 69.1355 297.827 70.9266 297.667 72.9166C297.548 74.9464 297.389 77.0757 297.19 79.3045C297.031 81.5333 296.871 83.6427 296.712 85.6327C296.553 87.6227 296.414 89.4138 296.294 91.0058C296.175 92.6376 296.075 93.8117 295.996 94.5281H292.891L294.682 71.4241ZM327.4 34.9472C327.082 34.3502 326.863 33.8328 326.744 33.395C326.624 32.9571 326.565 32.4397 326.565 31.8427C326.565 31.6437 326.565 31.4447 326.565 31.2457C326.604 31.0467 326.664 30.8676 326.744 30.7084C326.863 30.5492 327.022 30.4298 327.221 30.3502C327.46 30.2706 327.759 30.2905 328.117 30.4099C328.356 30.4895 328.594 30.6487 328.833 30.8875C329.072 31.0865 329.291 31.3651 329.49 31.7233C329.729 32.0417 329.908 32.3601 330.027 32.6785C330.186 32.9969 330.306 33.2557 330.385 33.4547C331.301 32.7382 332.296 32.0218 333.37 31.3054C334.445 30.5492 335.579 29.8925 336.773 29.3353C338.007 28.7383 339.241 28.2607 340.475 27.9025C341.748 27.5443 342.962 27.3652 344.117 27.3652C344.515 27.3652 344.992 27.405 345.549 27.4846C346.107 27.5642 346.624 27.7035 347.102 27.9025C347.619 28.1015 348.037 28.3801 348.355 28.7383C348.713 29.0567 348.893 29.4746 348.893 29.992C349.012 30.9472 348.893 31.9223 348.534 32.9173C348.216 33.8726 347.758 34.8079 347.161 35.7233C346.604 36.6387 345.947 37.5342 345.191 38.4098C344.475 39.2854 343.738 40.1212 342.982 40.9172C342.266 41.7132 341.589 42.4495 340.952 43.1261C340.355 43.8027 339.898 44.3997 339.579 44.9171C341.211 43.8425 342.962 43.0664 344.833 42.5888C346.743 42.0714 348.654 41.8127 350.564 41.8127C351.161 41.8127 351.798 41.8525 352.475 41.9321C353.191 41.9719 353.848 42.1112 354.445 42.35C355.042 42.5888 355.539 42.9271 355.937 43.3649C356.335 43.8027 356.534 44.4196 356.534 45.2156C356.534 46.0116 356.156 47.126 355.4 48.5588C354.684 49.9518 353.728 51.504 352.534 53.2155C351.38 54.8871 350.087 56.5985 348.654 58.3497C347.261 60.0611 345.908 61.6332 344.594 63.066C343.281 64.459 342.087 65.6132 341.012 66.5286C339.977 67.4042 339.241 67.842 338.803 67.842L337.251 67.1256C337.45 66.3694 337.948 65.4739 338.744 64.4391C339.54 63.4043 340.475 62.3297 341.549 61.2153C342.664 60.1009 343.838 58.9268 345.072 57.693C346.345 56.4592 347.539 55.2652 348.654 54.111C349.768 52.9568 350.743 51.8424 351.579 50.7677C352.415 49.6533 352.952 48.6583 353.191 47.7827C353.47 46.8673 353.37 46.1111 352.892 45.5141C352.415 44.8773 351.44 44.3997 349.967 44.0813C348.415 44.0813 346.783 44.3599 345.072 44.9171C343.36 45.4345 341.729 46.1907 340.176 47.1857C338.624 48.1807 337.231 49.3747 335.997 50.7677C334.803 52.121 333.928 53.6533 333.37 55.3647C333.37 56.4791 333.45 57.5736 333.609 58.6482C333.808 59.7228 334.007 60.7974 334.206 61.872C334.405 62.9068 334.584 63.9615 334.744 65.0361C334.943 66.1107 335.042 67.1853 335.042 68.2599C335.042 69.0559 334.982 69.7126 334.863 70.23C334.744 70.7475 334.246 71.0062 333.37 71.0062C333.291 71.0062 333.152 71.0062 332.953 71.0062C332.793 70.9664 332.714 70.9266 332.714 70.8868L327.4 34.9472ZM331.221 38.7083C331.221 40.1809 331.321 41.753 331.52 43.4246C331.719 45.0564 332.117 46.5688 332.714 47.9618C333.311 47.4444 334.047 46.7678 334.923 45.932C335.838 45.0564 336.773 44.1211 337.729 43.1261C338.724 42.1311 339.679 41.0764 340.594 39.962C341.549 38.8476 342.405 37.773 343.161 36.7382C343.957 35.7034 344.574 34.7482 345.012 33.8726C345.49 32.9571 345.728 32.2009 345.728 31.6039C345.728 31.1263 345.569 30.8079 345.251 30.6487C344.972 30.4895 344.634 30.4099 344.236 30.4099C343.281 30.4099 342.047 30.6089 340.535 31.0069C339.062 31.4049 337.629 31.9621 336.236 32.6785C334.883 33.395 333.709 34.2706 332.714 35.3054C331.719 36.3004 331.221 37.4347 331.221 38.7083ZM359.192 70.4689C359.192 67.8818 359.132 65.1555 359.013 62.2899C358.933 59.4243 358.834 56.5388 358.714 53.6334C358.635 50.6881 358.615 47.8026 358.655 44.9768C358.695 42.151 358.874 39.5043 359.192 37.0367C359.272 36.9969 359.451 36.977 359.729 36.977C360.048 36.9372 360.267 36.9173 360.386 36.9173C360.943 36.9173 361.381 37.0168 361.699 37.2158C362.058 37.375 362.237 37.7531 362.237 38.3501C362.237 40.6983 362.217 43.2654 362.177 46.0514C362.177 48.7976 362.157 51.6035 362.117 54.4692C362.117 57.295 362.117 60.1009 362.117 62.8869C362.117 65.6729 362.157 68.2002 362.237 70.4689C362.277 71.1455 362.137 71.5833 361.819 71.7823C361.54 72.0211 361.182 72.1405 360.744 72.1405C360.267 72.1405 359.869 72.0211 359.55 71.7823C359.232 71.5833 359.112 71.1455 359.192 70.4689ZM357.879 27.7234C357.879 27.2458 358.038 26.9274 358.356 26.7682C358.675 26.609 359.033 26.5294 359.431 26.5294C360.227 26.5294 360.724 26.7881 360.923 27.3055C361.122 27.8229 361.222 28.4199 361.222 29.0965C360.983 29.5343 360.685 29.8527 360.326 30.0517C359.968 30.2109 359.59 30.2507 359.192 30.1711C358.834 30.0517 358.515 29.793 358.237 29.395C357.998 28.997 357.879 28.4398 357.879 27.7234ZM365.133 57.9318C365.253 56.499 365.372 54.9468 365.492 53.2752C365.611 51.5637 365.79 49.8722 366.029 48.2006C366.308 46.529 366.646 44.937 367.044 43.4246C367.482 41.9122 368.039 40.5789 368.715 39.4247C369.432 38.2307 370.307 37.2954 371.342 36.6188C372.377 35.9024 373.631 35.5641 375.103 35.6039C376.098 35.6039 376.855 36.0218 377.372 36.8576C377.929 37.6934 378.307 38.7083 378.506 39.9023C378.745 41.0963 378.865 42.3301 378.865 43.6037C378.904 44.8375 378.924 45.8524 378.924 46.6484C378.128 46.6484 377.472 46.3101 376.954 45.6335C376.437 44.9171 376.039 44.1012 375.76 43.1858C375.482 42.2704 375.283 41.3749 375.163 40.4993L374.984 38.768C374.944 38.768 374.865 38.768 374.745 38.768C374.666 38.7282 374.606 38.7083 374.566 38.7083C373.889 38.7083 373.253 39.0864 372.656 39.8426C372.098 40.5988 371.561 41.5739 371.044 42.7679C370.566 43.9221 370.148 45.2355 369.79 46.7081C369.432 48.1409 369.133 49.5538 368.895 50.9468C368.656 52.3399 368.457 53.6334 368.298 54.8274C368.178 55.9816 368.118 56.8771 368.118 57.5139C368.039 58.5487 368.039 59.683 368.118 60.9168C368.198 62.1506 368.437 63.3048 368.835 64.3794C369.233 65.454 369.79 66.3893 370.506 67.1853C371.223 67.9415 372.178 68.4589 373.372 68.7375C374.845 68.7375 376.039 68.5385 376.954 68.1405C377.87 67.7425 378.606 67.2052 379.163 66.5286C379.76 65.852 380.218 65.0958 380.536 64.26C380.855 63.4242 381.153 62.5685 381.432 61.6929C381.75 60.7775 382.068 59.882 382.387 59.0064C382.705 58.1308 383.163 57.3149 383.76 56.5587C384.238 56.4393 384.576 56.4592 384.775 56.6184C385.014 56.7378 385.173 56.9169 385.252 57.1557C385.332 57.3945 385.372 57.6731 385.372 57.9915V58.6482C385.372 60.3198 385.093 61.9317 384.536 63.4839C383.979 65.0361 383.163 66.4291 382.088 67.6629C381.014 68.8569 379.72 69.832 378.208 70.5883C376.735 71.3047 375.044 71.6629 373.133 71.6629C371.541 71.6629 370.208 71.1654 369.133 70.1703C368.099 69.1355 367.283 67.9017 366.686 66.4689C366.128 65.0361 365.73 63.5436 365.492 61.9914C365.253 60.3994 365.133 59.0462 365.133 57.9318ZM389.522 25.813C390.358 25.017 391.015 24.6986 391.492 24.8578C392.01 25.017 392.388 25.5543 392.627 26.4697C392.865 27.3851 393.005 28.5791 393.045 30.0517C393.084 31.5243 393.064 33.1959 392.985 35.0666C392.945 36.8974 392.846 38.8476 392.686 40.9172C392.527 42.947 392.388 44.9569 392.268 46.9469C392.149 48.8971 392.069 50.7677 392.03 52.5588C391.99 54.3498 392.05 55.902 392.209 57.2154H392.388C392.467 57.2154 392.527 57.1955 392.567 57.1557C394.637 55.0861 396.487 52.8971 398.119 50.5886C399.751 48.2802 401.223 46.1111 402.537 44.0813C403.85 42.0117 405.005 40.2207 406 38.7083C407.034 37.1959 407.99 36.1611 408.865 35.6039C409.462 35.6039 409.96 35.7034 410.358 35.9024C410.795 36.1014 411.014 36.5591 411.014 37.2755C411.014 37.3551 410.994 37.4944 410.955 37.6934C410.955 37.8526 410.955 37.972 410.955 38.0516C409.96 40.0814 408.865 42.1311 407.671 44.2007C406.477 46.2305 405.184 48.2006 403.791 50.111C402.398 52.0215 400.885 53.8324 399.253 55.5438C397.661 57.2552 395.93 58.8074 394.059 60.2004C394.059 60.2402 394.04 60.3198 394 60.4392C394 60.5188 394 60.5785 394 60.6183C394 61.0163 394.318 61.4541 394.955 61.9317C395.632 62.4093 396.467 62.867 397.462 63.3048C398.497 63.7426 399.631 64.1804 400.865 64.6182C402.139 65.056 403.373 65.4341 404.567 65.7525C405.801 66.0709 406.935 66.3296 407.97 66.5286C409.044 66.7276 409.88 66.8271 410.477 66.8271C410.477 66.9863 410.477 67.2848 410.477 67.7226C410.517 68.1604 410.497 68.6181 410.417 69.0957C410.338 69.5733 410.198 70.0111 409.999 70.4092C409.8 70.7674 409.482 70.9465 409.044 70.9465H408.805C408.726 70.9465 408.666 70.9266 408.626 70.8868L391.552 64.0212C391.512 66.3694 391.353 68.2798 391.074 69.7524C390.796 71.1853 390.458 72.24 390.06 72.9166C389.701 73.633 389.303 73.9713 388.866 73.9315C388.468 73.8917 388.109 73.5733 387.791 72.9763L389.522 25.813Z" fill="#172396"/>
</svg>
