<svg width="743" height="114" viewBox="0 0 743 114" fill="none" xmlns="http://www.w3.org/2000/svg">
<path d="M697.295 78.5349C696.91 78.6118 696.333 78.7272 695.564 78.881C694.795 79.0348 693.987 79.0733 693.141 78.9964C692.295 78.9194 691.565 78.6887 690.949 78.3042C690.257 77.9196 689.911 77.2659 689.911 76.3429C689.911 75.8045 690.027 75.42 690.257 75.1892C690.488 74.9585 690.873 74.6124 691.411 74.1509C693.103 72.7665 694.526 70.9976 695.68 68.8441C696.91 66.6136 698.025 64.2678 699.025 61.8067C700.025 59.2686 701.063 56.769 702.14 54.3078C703.294 51.7697 704.601 49.5009 706.063 47.5012C707.524 45.5015 709.331 43.8863 711.485 42.6557C713.638 41.4252 716.292 40.8483 719.445 40.9252C720.753 40.9252 722.214 41.2329 723.829 41.8482C725.444 42.4635 726.944 43.3095 728.328 44.3863C729.713 45.3861 730.866 46.6167 731.789 48.078C732.712 49.5393 733.174 51.1544 733.174 52.9234C733.558 53.5387 733.174 54.4232 732.02 55.5769C730.943 56.7305 729.444 57.9996 727.521 59.384C725.598 60.6915 723.406 62.0759 720.945 63.5372C718.561 64.9216 716.253 66.2291 714.023 67.4597C711.792 68.6902 709.831 69.767 708.139 70.6899C706.447 71.6129 705.332 72.3051 704.794 72.7665C704.409 73.5357 704.101 74.4201 703.871 75.42C703.64 76.4198 703.448 77.3812 703.294 78.3042C703.217 79.1502 703.14 79.9577 703.063 80.7269C703.063 81.4191 703.063 81.9574 703.063 82.342C703.063 83.8033 702.986 85.4185 702.832 87.1874C702.755 88.9564 702.832 90.6484 703.063 92.2636C703.371 93.8018 704.024 95.1093 705.024 96.186C706.024 97.1859 707.716 97.6858 710.1 97.6858C712.638 97.6858 715.023 97.0705 717.253 95.8399C719.484 94.5325 721.56 92.9558 723.483 91.1099C725.406 89.264 727.136 87.2643 728.674 85.1108C730.29 82.9573 731.712 80.9576 732.943 79.1117C734.251 77.1889 735.404 75.6123 736.404 74.3817C737.404 73.1511 738.25 72.5358 738.942 72.5358C739.711 72.5358 740.519 72.6896 741.365 72.9973C742.288 73.228 742.749 73.8433 742.749 74.8431C742.749 76.2276 742.172 77.8811 741.019 79.8039C739.942 81.7267 738.481 83.7649 736.635 85.9184C734.866 88.0719 732.789 90.2254 730.405 92.3789C728.098 94.4555 725.752 96.3399 723.368 98.0319C720.983 99.6471 718.638 100.993 716.33 102.07C714.023 103.07 711.985 103.57 710.216 103.57C706.755 103.57 704.14 102.724 702.371 101.031C700.602 99.3394 699.333 97.2243 698.564 94.6863C697.871 92.1482 697.487 89.4563 697.41 86.6106C697.41 83.6879 697.372 80.9961 697.295 78.5349ZM718.522 47.3858C717.215 47.3858 715.83 48.0395 714.369 49.347C712.908 50.5776 711.523 52.1158 710.216 53.9617C708.985 55.7307 707.947 57.5765 707.101 59.4993C706.332 61.3452 705.947 62.8834 705.947 64.114C707.101 64.114 708.754 63.691 710.908 62.845C713.138 61.922 715.33 60.8068 717.484 59.4993C719.637 58.1918 721.522 56.8074 723.137 55.3461C724.752 53.8848 725.56 52.5004 725.56 51.1929C725.56 50.5007 725.29 49.9239 724.752 49.4624C724.214 49.0009 723.56 48.6164 722.791 48.3087C722.099 48.0011 721.368 47.7704 720.599 47.6165C719.83 47.4627 719.137 47.3858 718.522 47.3858Z" fill="#DDDDDD" fill-opacity="0.6"/>
<path d="M667.701 54.1924C666.931 54.577 666.201 55 665.509 55.4614C664.893 55.846 664.278 56.2305 663.663 56.6151C663.047 56.9227 662.432 57.1535 661.817 57.3073C661.202 57.4611 660.548 57.4611 659.856 57.3073C659.394 57.3073 659.01 57.0381 658.702 56.4997C658.394 55.8844 658.164 55.2307 658.01 54.5385C657.779 53.7694 657.625 53.0387 657.548 52.3465C657.471 51.5774 657.471 51.0006 657.548 50.616L668.624 44.2708L669.316 14.7369C669.47 13.737 670.085 13.3525 671.162 13.5832C672.238 13.737 673.354 13.9678 674.507 14.2754C674.661 14.2754 674.892 14.3523 675.199 14.5061C675.584 14.5831 675.853 14.66 676.007 14.7369C675.853 16.8135 675.661 19.0824 675.43 21.5435C675.276 23.9278 675.123 26.3505 674.969 28.8116C674.815 31.1959 674.7 33.5417 674.623 35.849C674.623 38.1564 674.738 40.233 674.969 42.0789L692.274 37.2334C692.581 37.1565 692.812 37.3873 692.966 37.9256C693.197 38.3871 693.389 38.9639 693.543 39.6561C693.774 40.3483 693.927 41.0406 694.004 41.7328C694.081 42.425 694.12 42.7711 694.12 42.7711L674.507 51.0775C674.507 51.7697 674.546 53.4233 674.623 56.0383C674.776 58.6533 674.93 61.7682 675.084 65.383C675.238 68.9209 675.392 72.7665 675.546 76.9197C675.699 80.996 675.853 84.8031 676.007 88.341C676.161 91.879 676.276 94.9939 676.353 97.6858C676.43 100.301 676.468 101.954 676.468 102.647C676.315 104.954 675.622 106.108 674.392 106.108C673.238 106.108 671.969 105.531 670.585 104.377L667.701 54.1924Z" fill="#DDDDDD" fill-opacity="0.6"/>
<path d="M656.45 100.454C656.066 98.4548 655.719 96.0705 655.412 93.3017C655.181 90.456 654.912 87.6103 654.604 84.7645C654.297 81.8419 653.912 79.1115 653.451 76.5735C653.066 74.0354 652.451 71.9588 651.605 70.3437C647.682 78.3424 644.221 84.6492 641.222 89.2639C638.222 93.8016 635.569 97.0703 633.261 99.07C631.031 100.993 629.147 101.916 627.608 101.839C626.07 101.762 624.801 101.07 623.801 99.7622C622.801 98.4548 622.071 96.8012 621.609 94.8015C621.225 92.7249 620.955 90.8021 620.802 89.0331C620.802 87.3411 621.186 84.9568 621.955 81.8804C622.724 78.8039 623.763 75.4583 625.07 71.8434C626.378 68.1517 627.916 64.4215 629.685 60.6528C631.531 56.8842 633.492 53.4616 635.569 50.3852C637.645 47.3087 639.799 44.7706 642.029 42.7709C644.26 40.7712 646.49 39.7714 648.72 39.7714C652.028 39.233 654.45 39.9637 655.989 41.9634C657.604 43.8862 657.911 47.1549 656.911 51.7696C656.911 56.8457 657.104 61.1912 657.488 64.806C657.95 68.4209 658.411 71.8819 658.873 75.1891C659.411 78.4963 659.873 81.9573 660.257 85.5721C660.719 89.1869 660.949 93.5324 660.949 98.6086C660.949 99.5315 660.834 100.339 660.603 101.031C660.449 101.647 659.527 101.954 657.834 101.954C657.604 101.954 657.296 101.762 656.911 101.377C656.604 100.993 656.45 100.685 656.45 100.454ZM650.22 48.8854C649.374 47.6548 648.221 47.5394 646.759 48.5393C645.298 49.5391 643.76 51.1927 642.145 53.5001C640.529 55.8074 638.876 58.5762 637.184 61.8065C635.492 65.0368 633.915 68.3055 632.454 71.6127C630.992 74.9199 629.723 78.0732 628.647 81.0728C627.57 83.9954 626.839 86.4181 626.455 88.3409C626.455 91.1097 626.878 92.6864 627.724 93.071C628.57 93.3786 629.608 92.9171 630.839 91.6866C632.069 90.456 633.454 88.687 634.992 86.3797C636.607 84.0723 638.145 81.6112 639.606 78.9962C641.145 76.3812 642.568 73.8431 643.875 71.382C645.259 68.9208 646.336 66.9211 647.105 65.3829C647.798 63.7677 648.336 62.268 648.72 60.8836C649.105 59.4992 649.413 58.1917 649.643 56.9611C649.951 55.6536 650.105 54.3461 650.105 53.0386C650.182 51.7311 650.22 50.3467 650.22 48.8854Z" fill="#DDDDDD" fill-opacity="0.6"/>
<path d="M574.826 78.5349C574.441 78.6118 573.864 78.7272 573.095 78.881C572.326 79.0348 571.518 79.0733 570.672 78.9964C569.826 78.9194 569.096 78.6887 568.48 78.3042C567.788 77.9196 567.442 77.2659 567.442 76.3429C567.442 75.8045 567.558 75.42 567.788 75.1892C568.019 74.9585 568.404 74.6124 568.942 74.1509C570.634 72.7665 572.057 70.9976 573.211 68.8441C574.441 66.6136 575.556 64.2678 576.556 61.8067C577.556 59.2686 578.594 56.769 579.671 54.3078C580.825 51.7697 582.132 49.5009 583.594 47.5012C585.055 45.5015 586.862 43.8863 589.016 42.6557C591.169 41.4252 593.823 40.8483 596.976 40.9252C598.284 40.9252 599.745 41.2329 601.36 41.8482C602.975 42.4635 604.475 43.3095 605.859 44.3863C607.244 45.3861 608.397 46.6167 609.32 48.078C610.243 49.5393 610.705 51.1544 610.705 52.9234C611.089 53.5387 610.705 54.4232 609.551 55.5769C608.474 56.7305 606.975 57.9996 605.052 59.384C603.129 60.6915 600.937 62.0759 598.476 63.5372C596.092 64.9216 593.784 66.2291 591.554 67.4597C589.323 68.6902 587.362 69.767 585.67 70.6899C583.978 71.6129 582.863 72.3051 582.325 72.7665C581.94 73.5357 581.632 74.4201 581.402 75.42C581.171 76.4198 580.979 77.3812 580.825 78.3042C580.748 79.1502 580.671 79.9577 580.594 80.7269C580.594 81.4191 580.594 81.9574 580.594 82.342C580.594 83.8033 580.517 85.4185 580.363 87.1874C580.286 88.9564 580.363 90.6484 580.594 92.2636C580.902 93.8018 581.555 95.1093 582.555 96.186C583.555 97.1859 585.247 97.6858 587.631 97.6858C590.169 97.6858 592.554 97.0705 594.784 95.8399C597.015 94.5325 599.091 92.9558 601.014 91.1099C602.937 89.264 604.667 87.2643 606.206 85.1108C607.821 82.9573 609.243 80.9576 610.474 79.1117C611.782 77.1889 612.935 75.6123 613.935 74.3817C614.935 73.1511 615.781 72.5358 616.473 72.5358C617.242 72.5358 618.05 72.6896 618.896 72.9973C619.819 73.228 620.28 73.8433 620.28 74.8431C620.28 76.2276 619.703 77.8811 618.55 79.8039C617.473 81.7267 616.012 83.7649 614.166 85.9184C612.397 88.0719 610.32 90.2254 607.936 92.3789C605.629 94.4555 603.283 96.3399 600.899 98.0319C598.514 99.6471 596.169 100.993 593.861 102.07C591.554 103.07 589.516 103.57 587.747 103.57C584.286 103.57 581.671 102.724 579.902 101.031C578.133 99.3394 576.864 97.2243 576.095 94.6863C575.402 92.1482 575.018 89.4563 574.941 86.6106C574.941 83.6879 574.903 80.9961 574.826 78.5349ZM596.053 47.3858C594.746 47.3858 593.361 48.0395 591.9 49.347C590.439 50.5776 589.054 52.1158 587.747 53.9617C586.516 55.7307 585.478 57.5765 584.632 59.4993C583.863 61.3452 583.478 62.8834 583.478 64.114C584.632 64.114 586.285 63.691 588.439 62.845C590.669 61.922 592.861 60.8068 595.015 59.4993C597.168 58.1918 599.053 56.8074 600.668 55.3461C602.283 53.8848 603.091 52.5004 603.091 51.1929C603.091 50.5007 602.821 49.9239 602.283 49.4624C601.745 49.0009 601.091 48.6164 600.322 48.3087C599.63 48.0011 598.899 47.7704 598.13 47.6165C597.361 47.4627 596.668 47.3858 596.053 47.3858Z" fill="#DDDDDD" fill-opacity="0.6"/>
<path d="M527.004 47.8471V46.9242C527.004 46.155 527.273 45.6167 527.811 45.309C528.427 45.0014 529.119 44.8475 529.888 44.8475C530.503 44.8475 531.08 44.9245 531.618 45.0783C532.157 45.1552 532.58 45.5782 532.887 46.3473C533.118 47.501 533.349 49.1161 533.58 51.1927C533.81 53.1924 534.08 55.4229 534.387 57.884C534.695 60.3452 535.002 62.9602 535.31 65.729C535.695 68.4209 536.041 70.9974 536.348 73.4586C536.733 75.8428 537.117 77.9963 537.502 79.9191C537.887 81.8419 538.31 83.3032 538.771 84.3031C538.54 76.9196 538.771 70.5359 539.463 65.1521C540.155 59.6914 541.463 55.269 543.386 51.8849C545.385 48.4239 548.077 46.0397 551.461 44.7322C554.922 43.3478 559.23 43.0401 564.383 43.8092C566.767 43.8092 567.959 45.0783 567.959 47.6164C567.959 48.6162 567.305 49.3084 565.998 49.693C564.69 50.0006 563.229 50.2313 561.614 50.3852C559.999 50.4621 558.422 50.5774 556.884 50.7313C555.345 50.8851 554.23 51.2696 553.538 51.8849C550.769 53.4232 548.808 55.8074 547.654 59.0377C546.578 62.268 545.808 66.0751 545.347 70.459C544.886 74.843 544.539 79.6499 544.309 84.8799C544.155 90.033 543.655 95.3398 542.809 100.801C542.809 101.57 542.501 102.146 541.886 102.531C541.271 102.916 540.502 103.108 539.579 103.108C538.733 103.108 537.887 102.916 537.041 102.531C536.271 102.146 535.656 101.57 535.195 100.801L527.004 47.8471Z" fill="#DDDDDD" fill-opacity="0.6"/>
<path d="M471.683 82.8035C471.683 80.3423 471.914 76.9967 472.375 72.7665C472.913 68.5364 473.683 63.9987 474.682 59.1532C475.759 54.3078 477.067 49.424 478.605 44.5016C480.143 39.5024 481.951 35.0031 484.027 31.0037C486.181 27.0043 488.603 23.7356 491.295 21.1975C494.064 18.6594 497.102 17.3904 500.409 17.3904C502.332 17.3904 503.947 17.7365 505.255 18.4287C506.639 19.1209 507.754 20.0823 508.6 21.3129C509.523 22.4665 510.177 23.8125 510.562 25.3507C511.023 26.812 511.254 28.4272 511.254 30.1961C509.869 30.1961 508.754 29.85 507.908 29.1578C507.062 28.3887 506.293 27.5811 505.601 26.7351C504.909 25.8891 504.178 25.12 503.409 24.4278C502.717 23.6587 501.755 23.2741 500.525 23.2741C498.063 23.2741 495.795 24.4662 493.718 26.8505C491.641 29.1578 489.757 32.1189 488.065 35.7337C486.373 39.3486 484.873 43.3864 483.566 47.8473C482.258 52.2312 481.143 56.5383 480.22 60.7684C479.374 64.9216 478.72 68.7287 478.259 72.1897C477.797 75.5738 477.567 78.1119 477.567 79.8039C477.567 82.0344 477.682 84.2263 477.913 86.3799C478.143 88.4565 478.643 90.3408 479.412 92.0328C480.182 93.7249 481.297 95.1093 482.758 96.1861C484.219 97.1859 486.296 97.6858 488.988 97.6858C492.064 97.6858 495.102 96.686 498.102 94.6863C501.178 92.6866 504.024 90.2639 506.639 87.4182C509.254 84.4955 511.523 81.4191 513.446 78.1888C515.368 74.8816 516.753 71.9974 517.599 69.5363C517.753 69.4594 518.099 69.4209 518.637 69.4209C519.176 69.344 519.522 69.3055 519.676 69.3055C520.598 69.3055 521.445 69.4209 522.214 69.6516C523.06 69.8055 523.483 70.4977 523.483 71.7282C523.021 74.1894 521.944 76.8044 520.252 79.5732C518.56 82.2651 516.561 84.9185 514.253 87.5335C511.946 90.1485 509.408 92.5712 506.639 94.8016C503.87 97.0321 501.178 98.9164 498.563 100.455C495.948 101.993 493.526 103.031 491.295 103.57C489.065 104.185 487.257 104.146 485.873 103.454C483.335 103.454 481.143 102.762 479.297 101.378C477.528 99.9162 476.067 98.1473 474.913 96.0707C473.836 93.9941 473.029 91.7636 472.49 89.3794C471.952 86.9951 471.683 84.8032 471.683 82.8035Z" fill="#DDDDDD" fill-opacity="0.6"/>
<path d="M411.226 82.3419C410.457 84.1109 409.457 86.1491 408.226 88.4564C407.073 90.7637 405.688 92.9557 404.073 95.0323C402.535 97.1089 400.727 98.8779 398.651 100.339C396.574 101.801 394.267 102.531 391.729 102.531C390.575 102.531 389.652 102.416 388.96 102.185C388.345 101.877 387.768 101.454 387.23 100.916C386.768 100.378 386.307 99.7239 385.845 98.9548C385.461 98.1857 384.961 97.3397 384.345 96.4167C384.115 92.6481 383.961 88.6102 383.884 84.3032C383.884 79.9192 384.115 75.5738 384.576 71.2667C385.038 66.8828 385.807 62.768 386.883 58.9224C388.037 55.0769 389.614 51.8081 391.613 49.1163C393.69 46.4244 396.267 44.5016 399.343 43.3479C402.42 42.1942 406.15 42.1173 410.534 43.1172C410.764 40.9637 410.803 38.0795 410.649 34.4646C410.495 30.8498 410.264 27.0427 409.957 23.0433C409.649 19.0439 409.342 15.1983 409.034 11.5066C408.726 7.73795 408.534 4.6615 408.457 2.27724C408.457 1.58504 408.765 1.08512 409.38 0.777473C410.072 0.392916 410.803 0.162183 411.572 0.0852714C412.341 0.00836006 413.072 0.00836006 413.764 0.0852714C414.533 0.162183 415.033 0.27755 415.264 0.431372C415.11 9.89147 415.071 19.1977 415.148 28.3502C415.225 37.4257 415.302 46.5013 415.379 55.5768C415.533 64.5754 415.687 73.5356 415.841 82.4573C415.994 91.379 416.071 100.301 416.071 109.222C416.071 110.068 415.994 110.953 415.841 111.876C415.764 112.876 415.11 113.376 413.879 113.376C413.418 113.376 412.956 113.222 412.495 112.914C412.033 112.683 411.726 112.299 411.572 111.761L411.226 82.3419ZM406.265 48.8855C403.881 48.7317 401.65 49.6931 399.574 51.7697C397.574 53.7694 395.805 56.3844 394.267 59.6147C392.806 62.8449 391.613 66.4213 390.691 70.3438C389.768 74.1893 389.191 77.9195 388.96 81.5344C388.806 85.0723 389.037 88.2257 389.652 90.9945C390.344 93.7633 391.537 95.6476 393.229 96.6475C394.921 96.6475 396.497 95.9937 397.959 94.6862C399.42 93.3018 400.766 91.5713 401.997 89.4947C403.227 87.4181 404.304 85.1108 405.227 82.5727C406.15 79.9577 406.919 77.4581 407.534 75.0738C408.226 72.6896 408.726 70.5361 409.034 68.6133C409.418 66.6136 409.611 65.1138 409.611 64.114C409.611 63.3448 409.649 62.1143 409.726 60.4222C409.803 58.7302 409.765 57.0381 409.611 55.3461C409.457 53.654 409.111 52.1542 408.572 50.8468C408.111 49.5393 407.342 48.8855 406.265 48.8855Z" fill="#DDDDDD" fill-opacity="0.6"/>
<path d="M336.062 101.954C335.216 91.5713 334.447 81.1882 333.755 70.8052C333.139 60.3453 332.447 49.5008 331.678 38.2717C331.678 36.4258 332.678 35.5029 334.678 35.5029H335.601C335.831 35.5029 336.1 35.8105 336.408 36.4258C336.716 37.0411 337.023 38.1948 337.331 39.8868C337.716 41.502 338.1 44.0016 338.485 47.3857C338.946 50.6929 339.485 55.0384 340.1 60.4222C340.715 65.806 341.407 72.5357 342.176 80.6114C343.792 75.3814 345.061 70.3053 345.984 65.383C346.906 60.4606 348.099 55.9998 349.56 52.0004C351.021 47.9241 353.059 44.3477 355.674 41.2713C358.366 38.1948 362.212 35.9259 367.211 34.4646C369.98 34.9261 372.21 36.6181 373.902 39.5407C375.594 42.3865 376.94 45.9244 377.94 50.1545C378.94 54.3846 379.632 58.9993 380.017 63.9986C380.401 68.9209 380.632 73.6509 380.709 78.1887C380.786 82.7265 380.824 86.8028 380.824 90.4176C380.824 93.9555 380.901 96.4936 381.055 98.0318C380.824 98.6471 380.478 99.1855 380.017 99.647C379.555 100.108 379.017 100.455 378.402 100.685C377.863 100.839 377.325 100.878 376.787 100.801C376.248 100.647 375.748 100.224 375.287 99.5316C375.287 98.6856 375.21 96.9551 375.056 94.3401C374.902 91.7251 374.71 88.6871 374.479 85.2261C374.248 81.6882 373.979 77.958 373.672 74.0355C373.441 70.0361 373.21 66.3059 372.979 62.8449C372.826 59.307 372.672 56.2305 372.518 53.6155C372.364 51.0005 372.249 49.27 372.172 48.424C370.557 45.5783 368.942 43.9632 367.326 43.5786C365.788 43.194 364.212 43.694 362.596 45.0784C361.058 46.4628 359.558 48.5778 358.097 51.4235C356.636 54.2693 355.251 57.4995 353.944 61.1144C352.636 64.6523 351.406 68.3825 350.252 72.305C349.098 76.2275 348.099 80.0346 347.253 83.7263C346.407 87.3411 345.676 90.6483 345.061 93.6479C344.522 96.5705 344.176 98.8394 344.022 100.455C343.792 100.993 343.292 101.531 342.523 102.07C341.83 102.531 341.061 102.877 340.215 103.108C339.446 103.339 338.639 103.416 337.793 103.339C337.023 103.185 336.447 102.723 336.062 101.954Z" fill="#DDDDDD" fill-opacity="0.6"/>
<path d="M323.081 100.454C322.696 98.4548 322.35 96.0705 322.043 93.3017C321.812 90.456 321.543 87.6103 321.235 84.7645C320.927 81.8419 320.543 79.1115 320.081 76.5735C319.697 74.0354 319.082 71.9588 318.236 70.3437C314.313 78.3424 310.852 84.6492 307.852 89.2639C304.853 93.8016 302.199 97.0703 299.892 99.07C297.662 100.993 295.777 101.916 294.239 101.839C292.701 101.762 291.432 101.07 290.432 99.7622C289.432 98.4548 288.702 96.8012 288.24 94.8015C287.856 92.7249 287.586 90.8021 287.432 89.0331C287.432 87.3411 287.817 84.9568 288.586 81.8804C289.355 78.8039 290.394 75.4583 291.701 71.8434C293.009 68.1517 294.547 64.4215 296.316 60.6528C298.162 56.8842 300.123 53.4616 302.199 50.3852C304.276 47.3087 306.43 44.7706 308.66 42.7709C310.89 40.7712 313.121 39.7714 315.351 39.7714C318.659 39.233 321.081 39.9637 322.619 41.9634C324.235 43.8862 324.542 47.1549 323.542 51.7696C323.542 56.8457 323.735 61.1912 324.119 64.806C324.581 68.4209 325.042 71.8819 325.504 75.1891C326.042 78.4963 326.503 81.9573 326.888 85.5721C327.349 89.1869 327.58 93.5324 327.58 98.6086C327.58 99.5315 327.465 100.339 327.234 101.031C327.08 101.647 326.157 101.954 324.465 101.954C324.235 101.954 323.927 101.762 323.542 101.377C323.235 100.993 323.081 100.685 323.081 100.454ZM316.851 48.8854C316.005 47.6548 314.851 47.5394 313.39 48.5393C311.929 49.5391 310.391 51.1927 308.775 53.5001C307.16 55.8074 305.507 58.5762 303.815 61.8065C302.123 65.0368 300.546 68.3055 299.085 71.6127C297.623 74.9199 296.354 78.0732 295.277 81.0728C294.201 83.9954 293.47 86.4181 293.085 88.3409C293.085 91.1097 293.508 92.6864 294.355 93.071C295.201 93.3786 296.239 92.9171 297.469 91.6866C298.7 90.456 300.084 88.687 301.623 86.3797C303.238 84.0723 304.776 81.6112 306.237 78.9962C307.776 76.3812 309.198 73.8431 310.506 71.382C311.89 68.9208 312.967 66.9211 313.736 65.3829C314.428 63.7677 314.967 62.268 315.351 60.8836C315.736 59.4992 316.044 58.1917 316.274 56.9611C316.582 55.6536 316.736 54.3461 316.736 53.0386C316.813 51.7311 316.851 50.3467 316.851 48.8854Z" fill="#DDDDDD" fill-opacity="0.6"/>
<path d="M194.557 14.8522C196.173 13.314 197.442 12.6987 198.365 13.0064C199.364 13.314 200.095 14.3523 200.557 16.1213C201.018 17.8902 201.287 20.1976 201.364 23.0433C201.441 25.889 201.403 29.1193 201.249 32.7341C201.172 36.272 200.98 40.0407 200.672 44.0401C200.364 47.9626 200.095 51.8466 199.864 55.6922C199.634 59.4608 199.48 63.0756 199.403 66.5366C199.326 69.9977 199.441 72.9972 199.749 75.5353H200.095C200.249 75.5353 200.364 75.4968 200.441 75.4199C204.441 71.4205 208.017 67.1904 211.17 62.7295C214.324 58.2687 217.169 54.077 219.707 50.1545C222.246 46.1551 224.476 42.6941 226.399 39.7715C228.398 36.8489 230.244 34.8492 231.936 33.7724C233.09 33.7724 234.051 33.9647 234.821 34.3493C235.667 34.7338 236.09 35.6183 236.09 37.0027C236.09 37.1565 236.051 37.4257 235.974 37.8103C235.974 38.1179 235.974 38.3486 235.974 38.5025C234.051 42.4249 231.936 46.3859 229.629 50.3853C227.322 54.3077 224.822 58.1149 222.13 61.8066C219.438 65.4983 216.516 68.9978 213.362 72.305C210.286 75.6122 206.94 78.6117 203.325 81.3036C203.325 81.3805 203.287 81.5344 203.21 81.7651C203.21 81.9189 203.21 82.0343 203.21 82.1112C203.21 82.8803 203.825 83.7263 205.056 84.6493C206.363 85.5722 207.978 86.4567 209.901 87.3027C211.901 88.1487 214.093 88.9948 216.477 89.8408C218.938 90.6868 221.323 91.4175 223.63 92.0328C226.014 92.6481 228.206 93.148 230.206 93.5325C232.282 93.9171 233.898 94.1094 235.051 94.1094C235.051 94.417 235.051 94.9938 235.051 95.8399C235.128 96.6859 235.09 97.5704 234.936 98.4933C234.782 99.4162 234.513 100.262 234.128 101.031C233.744 101.724 233.128 102.07 232.282 102.07H231.821C231.667 102.07 231.552 102.031 231.475 101.954L198.48 88.6871C198.403 93.2249 198.095 96.9166 197.557 99.7624C197.019 102.531 196.365 104.569 195.596 105.877C194.904 107.261 194.134 107.915 193.288 107.838C192.519 107.761 191.827 107.146 191.212 105.992L194.557 14.8522Z" fill="#DDDDDD" fill-opacity="0.6"/>
<path d="M141.313 101.954C140.467 91.5713 139.698 81.1882 139.006 70.8052C138.391 60.3453 137.698 49.5008 136.929 38.2717C136.929 36.4258 137.929 35.5029 139.929 35.5029H140.852C141.083 35.5029 141.352 35.8105 141.659 36.4258C141.967 37.0411 142.275 38.1948 142.582 39.8868C142.967 41.502 143.351 44.0016 143.736 47.3857C144.197 50.6929 144.736 55.0384 145.351 60.4222C145.966 65.806 146.659 72.5357 147.428 80.6114C149.043 75.3814 150.312 70.3053 151.235 65.383C152.158 60.4606 153.35 55.9998 154.811 52.0004C156.273 47.9241 158.311 44.3477 160.926 41.2713C163.618 38.1948 167.463 35.9259 172.462 34.4646C175.231 34.9261 177.462 36.6181 179.154 39.5407C180.846 42.3865 182.192 45.9244 183.191 50.1545C184.191 54.3846 184.884 58.9993 185.268 63.9986C185.653 68.9209 185.883 73.6509 185.96 78.1887C186.037 82.7265 186.076 86.8028 186.076 90.4176C186.076 93.9555 186.153 96.4936 186.306 98.0318C186.076 98.6471 185.73 99.1855 185.268 99.647C184.807 100.108 184.268 100.455 183.653 100.685C183.115 100.839 182.576 100.878 182.038 100.801C181.499 100.647 181 100.224 180.538 99.5316C180.538 98.6856 180.461 96.9551 180.307 94.3401C180.153 91.7251 179.961 88.6871 179.73 85.2261C179.5 81.6882 179.231 77.958 178.923 74.0355C178.692 70.0361 178.461 66.3059 178.231 62.8449C178.077 59.307 177.923 56.2305 177.769 53.6155C177.615 51.0005 177.5 49.27 177.423 48.424C175.808 45.5783 174.193 43.9632 172.578 43.5786C171.04 43.194 169.463 43.694 167.848 45.0784C166.309 46.4628 164.81 48.5778 163.348 51.4235C161.887 54.2693 160.503 57.4995 159.195 61.1144C157.888 64.6523 156.657 68.3825 155.503 72.305C154.35 76.2275 153.35 80.0346 152.504 83.7263C151.658 87.3411 150.927 90.6483 150.312 93.6479C149.774 96.5705 149.427 98.8394 149.274 100.455C149.043 100.993 148.543 101.531 147.774 102.07C147.082 102.531 146.313 102.877 145.466 103.108C144.697 103.339 143.89 103.416 143.044 103.339C142.275 103.185 141.698 102.723 141.313 101.954Z" fill="#DDDDDD" fill-opacity="0.6"/>
<path d="M124.986 101.147C124.986 96.1475 124.871 90.879 124.64 85.3414C124.487 79.8038 124.294 74.2277 124.064 68.6132C123.91 62.9218 123.871 57.3457 123.948 51.885C124.025 46.4243 124.371 41.3097 124.986 36.5412C125.14 36.4643 125.486 36.4258 126.025 36.4258C126.64 36.3489 127.063 36.3104 127.294 36.3104C128.371 36.3104 129.217 36.5027 129.832 36.8873C130.524 37.1949 130.87 37.9256 130.87 39.0792C130.87 43.617 130.832 48.5778 130.755 53.9616C130.755 59.2685 130.716 64.6907 130.639 70.2283C130.639 75.689 130.639 81.1113 130.639 86.4951C130.639 91.8789 130.716 96.7627 130.87 101.147C130.947 102.454 130.678 103.3 130.063 103.685C129.524 104.146 128.832 104.377 127.986 104.377C127.063 104.377 126.294 104.146 125.679 103.685C125.063 103.3 124.833 102.454 124.986 101.147ZM122.448 18.5439C122.448 17.621 122.756 17.0057 123.371 16.698C123.987 16.3904 124.679 16.2366 125.448 16.2366C126.986 16.2366 127.948 16.7365 128.332 17.7363C128.717 18.7362 128.909 19.8899 128.909 21.1974C128.448 22.0434 127.871 22.6587 127.178 23.0432C126.486 23.3509 125.756 23.4278 124.986 23.274C124.294 23.0432 123.679 22.5433 123.141 21.7742C122.679 21.0051 122.448 19.9283 122.448 18.5439Z" fill="#DDDDDD" fill-opacity="0.6"/>
<path d="M111.775 53.0388C108.929 51.962 106.199 52.385 103.584 54.3078C100.969 56.2306 98.469 58.9609 96.0848 62.4988C93.7005 65.9599 91.4317 69.9208 89.2781 74.3816C87.1246 78.8425 85.1249 83.0726 83.2791 87.072C81.4332 91.0714 79.7411 94.494 78.2029 97.3397C76.7416 100.185 75.3956 101.762 74.1651 102.07C73.2421 102.07 72.5115 101.916 71.9731 101.608C71.5116 101.224 71.2809 100.339 71.2809 98.9548V17.8518C71.2809 17.1596 71.5501 16.7366 72.0885 16.5828C72.7037 16.429 73.3575 16.3905 74.0497 16.4674C74.7419 16.5443 75.3956 16.7366 76.0109 17.0442C76.6262 17.275 77.0108 17.5442 77.1646 17.8518L78.6644 82.8034C79.5104 81.419 80.2795 79.4963 80.9717 77.0351C81.7408 74.497 82.6253 71.8051 83.6252 68.9594C84.625 66.0368 85.7787 63.1526 87.0862 60.3069C88.4706 57.3842 90.1626 54.7693 92.1623 52.4619C94.162 50.1546 96.5847 48.3856 99.4304 47.155C102.353 45.8475 105.776 45.3861 109.698 45.7706C112.313 45.7706 114.428 46.6167 116.043 48.3087C117.658 49.9238 118.504 52.0774 118.581 54.7693L119.735 100.801C119.735 101.108 119.658 101.57 119.504 102.185C119.427 102.723 119.12 103.185 118.581 103.569C118.12 104.031 117.428 104.3 116.505 104.377C115.659 104.531 114.544 104.339 113.159 103.8L111.775 53.0388Z" fill="#DDDDDD" fill-opacity="0.6"/>
<path d="M34.0727 31.1189C31.6115 31.1189 29.1119 31.3496 26.5738 31.8111C24.1127 32.2726 21.6515 32.8109 19.1903 33.4262C16.7292 33.9646 14.268 34.4645 11.8069 34.926C9.3457 35.3875 6.84608 35.6182 4.30801 35.6182C3.53889 35.6182 2.73132 35.5413 1.8853 35.3875C1.11619 35.1567 0.731628 34.4645 0.731628 33.3109C0.731628 32.5417 1.03927 31.7726 1.65456 31.0035C2.34677 30.1575 3.07742 29.696 3.84654 29.6191L34.7649 25.1198C34.8418 24.8122 34.9572 24.3507 35.111 23.7354C35.2648 23.0432 35.4571 22.3894 35.6878 21.7742C35.9955 21.082 36.38 20.5051 36.8415 20.0437C37.303 19.5053 37.8414 19.2361 38.4566 19.2361C39.3796 19.2361 40.1102 19.4668 40.6486 19.9283C41.187 20.3898 41.6485 20.9281 42.033 21.5434C42.4176 22.0818 42.7637 22.5817 43.0713 23.0432C43.379 23.5047 43.7635 23.7354 44.225 23.7354H45.1479C45.917 23.6585 47.1476 23.5431 48.8397 23.3893C50.5317 23.1586 52.4545 22.9278 54.608 22.6971C56.8385 22.4664 59.1842 22.2356 61.6454 22.0049C64.1066 21.6972 66.4524 21.4665 68.6828 21.3127C70.9132 21.082 72.8745 20.8897 74.5665 20.7359C76.2586 20.5051 77.4891 20.3128 78.2583 20.159C78.489 20.159 79.0274 20.159 79.8734 20.159C80.7963 20.0821 81.4501 20.0437 81.8346 20.0437C81.8346 21.505 81.0271 22.7355 79.4119 23.7354C77.8737 24.6583 75.874 25.4659 73.4128 26.1581C71.0286 26.7734 68.3367 27.2733 65.3372 27.6579C62.4145 27.9655 59.5303 28.2347 56.6846 28.4654C53.9158 28.6962 51.3393 28.8885 48.955 29.0423C46.6477 29.1961 44.8787 29.3884 43.6482 29.6191C43.3405 35.0798 43.4559 40.7713 43.9943 46.6934C44.6095 52.6156 45.3402 58.5762 46.1862 64.5753C47.1092 70.5744 47.9552 76.535 48.7243 82.4572C49.4934 88.3794 49.878 94.0324 49.878 99.4162C50.1856 100.493 50.301 101.339 50.2241 101.954C50.2241 102.57 50.0318 102.993 49.6472 103.223C49.2627 103.454 48.6859 103.569 47.9167 103.569C47.1476 103.569 46.2247 103.531 45.1479 103.454C44.3788 100.685 43.6866 97.4549 43.0713 93.7632C42.5329 89.9945 42.033 85.9951 41.5716 81.765C41.1101 77.458 40.6486 73.0356 40.1871 68.4978C39.8026 63.96 39.418 59.4607 39.0335 54.9999C38.6489 50.539 38.2259 46.2704 37.7644 42.1941C37.303 38.1178 36.7646 34.4261 36.1493 31.1189H34.0727Z" fill="#DDDDDD" fill-opacity="0.6"/>
</svg>
